0
SECTION
2
HEADER
9
$INSUNITS
70
4
9
$ACADVER
1
AC1014
9
$HANDSEED
5
FFFF
0
ENDSEC
0
SECTION
2
TABLES
0
TABLE
2
VPORT
5
8
100
AcDbSymbolTable
0
ENDTAB
0
TABLE
2
LTYPE
5
5
100
AcDbSymbolTable
0
LTYPE
5
14
100
AcDbSymbolTableRecord
100
AcDbLinetypeTableRecord
2
BYBLOCK
70
0
0
LTYPE
5
15
100
AcDbSymbolTableRecord
100
AcDbLinetypeTableRecord
2
BYLAYER
70
0
0
ENDTAB
0
TABLE
2
LAYER
5
2
100
AcDbSymbolTable
70
2
0
LAYER
5
50
100
AcDbSymbolTableRecord
100
AcDbLayerTableRecord
2
0
70
0
6
CONTINUOUS
0
ENDTAB
0
TABLE
2
STYLE
5
3
100
AcDbSymbolTable
70
1
0
STYLE
5
11
100
AcDbSymbolTableRecord
100
AcDbTextStyleTableRecord
2
STANDARD
70
0
0
ENDTAB
0
TABLE
2
VIEW
5
6
100
AcDbSymbolTable
70
0
0
ENDTAB
0
TABLE
2
UCS
5
7
100
AcDbSymbolTable
70
0
0
ENDTAB
0
TABLE
2
APPID
5
9
100
AcDbSymbolTable
70
2
0
APPID
5
12
100
AcDbSymbolTableRecord
100
AcDbRegAppTableRecord
2
ACAD
70
0
0
ENDTAB
0
TABLE
2
DIMSTYLE
5
A
100
AcDbSymbolTable
70
1
0
ENDTAB
0
TABLE
2
BLOCK_RECORD
5
1
100
AcDbSymbolTable
70
1
0
BLOCK_RECORD
5
1F
100
AcDbSymbolTableRecord
100
AcDbBlockTableRecord
2
*MODEL_SPACE
0
BLOCK_RECORD
5
1B
100
AcDbSymbolTableRecord
100
AcDbBlockTableRecord
2
*PAPER_SPACE
0
ENDTAB
0
ENDSEC
0
SECTION
2
BLOCKS
0
BLOCK
5
20
100
AcDbEntity
100
AcDbBlockBegin
2
*MODEL_SPACE
0
ENDBLK
5
21
100
AcDbEntity
100
AcDbBlockEnd
0
BLOCK
5
1C
100
AcDbEntity
100
AcDbBlockBegin
2
*PAPER_SPACE
0
ENDBLK
5
1D
100
AcDbEntity
100
AcDbBlockEnd
0
ENDSEC
0
SECTION
2
ENTITIES
0
LWPOLYLINE
5
100
100
AcDbEntity
8
0
100
AcDbPolyline
90
20
70
1
43
0.0
10
-15.554534912109002
20
44.455894470215
10
-15.554534912109004
20
47.58285140991201
10
-34.554534912108998
20
47.58285140991201
10
-34.554534912108998
20
44.455894470215
10
-53.02381896972701
20
44.455894470215
10
-53.02381896972701
20
47.58285140991201
10
-60.023818969727003
20
47.58285140991201
10
-60.023818969727003
20
44.455894470215
10
-72.499969482422003
20
44.455894470215
10
-72.499969482422003
20
3.1558914184569975
10
-60.023818969727003
20
3.1558914184569975
10
-60.023818969727003
20
0
10
-53.02381896972701
20
0
10
-53.02381896972701
20
3.1558914184569975
10
-24.367477416992003
20
3.1558914184569975
10
-24.367477416992003
20
0
10
-17.367462158203001
20
0
10
-17.367462158203001
20
3.1558914184569975
10
0
20
3.1558914184569975
10
0
20
44.455894470215
0
LWPOLYLINE
5
101
100
AcDbEntity
8
0
100
AcDbPolyline
90
4
70
1
43
0.0
10
-53.357528686522997
20
21.363552093506005
10
-53.357528686522997
20
16.863552093506001
10
-63.451187133789006
20
16.863552093506001
10
-63.451187133789006
20
21.363552093506005
0
LWPOLYLINE
5
102
100
AcDbEntity
8
0
100
AcDbPolyline
90
4
70
1
43
0.0
10
-49.86833190918
20
17.88395690918
10
-49.86833190918
20
24.883956909180004
10
-33.86833190918
20
24.883956909180004
10
-33.86833190918
20
17.88395690918
0
LWPOLYLINE
5
103
100
AcDbEntity
8
0
100
AcDbPolyline
90
4
70
1
43
0.0
10
-30.686752319336001
20
14.126964569091998
10
-14.686752319336001
20
14.126964569091998
10
-14.686752319336001
20
5.8269653320310022
10
-30.686752319336001
20
5.8269653320310022
0
LWPOLYLINE
5
104
100
AcDbEntity
8
0
100
AcDbPolyline
90
4
70
1
43
0.0
10
-41.017761230468999
20
14.126964569091998
10
-41.017761230468999
20
5.8269653320310022
10
-57.017761230469006
20
5.8269653320310022
10
-57.017761230469006
20
14.126964569091998
0
LWPOLYLINE
5
105
100
AcDbEntity
8
0
100
AcDbPolyline
90
156
70
1
43
0.0
10
-47.011276245117003
20
39.580562591552997
10
-46.911956787109006
20
39.541236877441001
10
-46.813674926757997
20
39.499431610107003
10
-46.716461181641009
20
39.455169677733998
10
-46.620391845702997
20
39.408477783202997
10
-46.52552795410201
20
39.359382629395
10
-46.43193054199201
20
39.307922363281008
10
-46.339660644531008
20
39.254127502441001
10
-46.248748779297003
20
39.198028564452997
10
-46.15930175781201
20
39.139659881592003
10
-46.071334838867003
20
39.079063415527003
10
-45.984924316406001
20
39.01627731323201
10
-45.90011596679701
20
38.95133972168
10
-45.853928939241946
20
38.914095126510794
10
-45.816970825195
20
38.884290906901811
10
-45.771733136434527
20
38.845893543197811
10
-45.735534667969006
20
38.815170288086009
10
-45.655868530272997
20
38.744026184082003
10
-45.61894226074201
20
38.709350585937997
10
-42.776031494141009
20
38.709350585937997
10
-42.776031494141009
20
32.509349822997997
10
-45.61894226074201
20
32.509349822997997
10
-45.655868530272997
20
32.474670410156001
10
-45.735534667969006
20
32.403526306152003
10
-45.816970825195
20
32.334411621093999
10
-45.90011596679701
20
32.267356872558999
10
-45.947226984318526
20
32.231286175353638
10
-45.984924316406001
20
32.202421400069404
10
-46.032925340556247
20
32.167541616495619
10
-46.071334838867003
20
32.139633178711001
10
-46.15930175781201
20
32.079036712646001
10
-46.248748779297003
20
32.02067565918
10
-46.339660644531008
20
31.964572906494002
10
-46.43193054199201
20
31.910778045653998
10
-46.52552795410201
20
31.859315872191999
10
-46.620391845702997
20
31.810222625732003
10
-46.716461181641009
20
31.763530731201005
10
-46.813674926757997
20
31.719268798828004
10
-46.911956787109006
20
31.677459716797003
10
-47.011276245117003
20
31.638137817383001
10
-47.111541748047003
20
31.601322174072003
10
-47.167739309430615
20
31.582279210822612
10
-47.212707519531001
20
31.567040549278072
10
-47.269354322355511
20
31.549413120379917
10
-47.314682006836001
20
31.535308837891005
10
-47.41744995117201
20
31.506153106689002
10
-47.520904541016009
20
31.479587554931999
10
-47.624984741211009
20
31.455633163451999
10
-47.72966003418
20
31.434297561646005
10
-47.834808349609006
20
31.415603637695
10
-47.940414428711009
20
31.399555206299002
10
-48.046386718750007
20
31.386167526245004
10
-48.152648925781001
20
31.375446319580004
10
-48.211821777583012
20
31.370977205396848
10
-48.259163749709508
20
31.367401123047003
10
-48.318421364227163
20
31.364419594523678
10
-48.365844726562003
20
31.362033843993999
10
-48.425161674980629
20
31.360543079732338
10
-48.47262573242201
20
31.359349356653318
10
-48.579437255859006
20
31.359349356653318
10
-48.638745728006057
20
31.360840120914609
10
-48.68620300293
20
31.362033843993999
10
-48.792877197266009
20
31.367401123047003
10
-48.89938354492201
20
31.375446319580004
10
-49.00566101074201
20
31.386167526245004
10
-49.111633300781001
20
31.399555206299002
10
-49.217224121093999
20
31.415603637695
10
-49.322402954102003
20
31.434297561646005
10
-49.427047729492003
20
31.455633163451999
10
-49.531143188477003
20
31.479587554931999
10
-49.63459777832
20
31.506153106689002
10
-49.737350463867003
20
31.535308837891005
10
-49.794005863013908
20
31.552936304146368
10
-49.839340209961009
20
31.567040549280318
10
-49.895537890443322
20
31.586083552886826
10
-49.940505981445007
20
31.601322174072003
10
-50.040771484375
20
31.638137817383001
10
-50.140075683593999
20
31.677459716797003
10
-50.238372802734006
20
31.719268798828004
10
-50.335586547852003
20
31.763530731201005
10
-50.431655883789006
20
31.810222625732003
10
-50.526519775391002
20
31.859315872191999
10
-50.6201171875
20
31.910778045653998
10
-50.712387084961001
20
31.964572906494002
10
-50.803283691406008
20
32.02067565918
10
-50.89274597168
20
32.079036712646001
10
-50.980712890625
20
32.139633178711001
10
-51.028714016503052
20
32.174513036204942
10
-51.067123413086009
20
32.202421400073625
10
-51.114226054178069
20
32.238492173722854
10
-51.151916503906001
20
32.267356872558999
10
-51.23507690429701
20
32.334411621093999
10
-51.316513061522997
20
32.403526306152003
10
-51.396194458008004
20
32.474670410156001
10
-51.433120727539006
20
32.509349822997997
10
-54.276016235352003
20
32.509349822997997
10
-54.276016235352003
20
38.709350585937997
10
-51.433120727539006
20
38.709350585937997
10
-51.396194458008004
20
38.744026184082003
10
-51.316513061522997
20
38.815170288086009
10
-51.271275372762553
20
38.853567651789724
10
-51.23507690429701
20
38.884290906901811
10
-51.188881400502794
20
38.921535502070746
10
-51.151916503906001
20
38.95133972168
10
-51.067123413086009
20
39.01627731323201
10
-50.980712890625
20
39.079063415527003
10
-50.89274597168
20
39.139659881592003
10
-50.803283691406008
20
39.198028564452997
10
-50.712387084961001
20
39.254127502441001
10
-50.6201171875
20
39.307922363281008
10
-50.526519775391002
20
39.359382629395
10
-50.431655883789006
20
39.408477783202997
10
-50.335586547852003
20
39.455169677733998
10
-50.281587633188856
20
39.479755669212025
10
-50.238372802734006
20
39.49943330564458
10
-50.183766277026074
20
39.522657184689194
10
-50.140075683593999
20
39.541236877441001
10
-50.040771484375
20
39.580562591552997
10
-49.940505981445007
20
39.617378234862997
10
-49.839340209961009
20
39.651660919188998
10
-49.782687429009343
20
39.66928651134819
10
-49.737350463867003
20
39.683389875476081
10
-49.680269629861272
20
39.699584252275393
10
-49.63459777832
20
39.712543487548999
10
-49.531143188477003
20
39.739112854003999
10
-49.427047729492003
20
39.763069152832003
10
-49.322402954102003
20
39.784400939941008
10
-49.217224121093999
20
39.803100585937997
10
-49.111633300781001
20
39.819145202637003
10
-49.052763922674636
20
39.826581223075209
10
-49.00566101074201
20
39.832532671069039
10
-48.94662650755162
20
39.838489095636795
10
-48.89938354492201
20
39.843254089355
10
-48.792877197266009
20
39.851299285888999
10
-48.68620300293
20
39.856666564941001
10
-48.579437255859006
20
39.859352111816001
10
-48.47262573242201
20
39.859352111816001
10
-48.365844726562003
20
39.856666564941001
10
-48.306584524571541
20
39.85368490623047
10
-48.259163749174093
20
39.851299285888999
10
-48.19999463549297
20
39.846830454032023
10
-48.152648925781001
20
39.843254089355
10
-48.046386718750007
20
39.83253097534201
10
-47.940414428711009
20
39.819145202637003
10
-47.881750377012494
20
39.81023243708853
10
-47.834808349609006
20
39.803098890300539
10
-47.776398585087342
20
39.792711259125625
10
-47.72966003418
20
39.784400939941008
10
-47.624984741211009
20
39.763069152832003
10
-47.520904541016009
20
39.739112854003999
10
-47.41744995117201
20
39.712543487548999
10
-47.360362479969929
20
39.696349632503484
10
-47.314682006836001
20
39.683389875407549
10
-47.2580353000738
20
39.665763535932726
10
-47.212707519531001
20
39.651660919188998
10
-47.111541748047003
20
39.617378234862997
0
LWPOLYLINE
5
106
100
AcDbEntity
8
0
100
AcDbPolyline
90
369
70
1
43
0.0
10
-11.270690917969002
20
42.880149841308999
10
-11.089431762695002
20
42.840156555176002
10
-10.918075561523002
20
42.798282623291001
10
-10.756912231445
20
42.754669189452997
10
-10.606063842773001
20
42.709457397461001
10
-10.465545654296999
20
42.66281127929701
10
-10.335189819336
20
42.614883422852003
10
-10.214782714844002
20
42.565818786621001
10
-10.103942871094
20
42.515777587891002
10
-10.002288818359
20
42.464889526367003
10
-9.9093322753910016
20
42.413272857666009
10
-9.8245849609379992
20
42.361038208007997
10
-9.74755859375
20
42.308280944824006
10
-9.6777038574219993
20
42.255081176758004
10
-9.6145629882809995
20
42.201522827147997
10
-9.5575866699219993
20
42.147655487061002
10
-9.50634765625
20
42.093536376953004
10
-9.4603881835940005
20
42.039207458496001
10
-9.4192657470699999
20
41.984710693359006
10
-9.3825836181640003
20
41.930076599121008
10
-9.3499908447269995
20
41.875328063965
10
-9.3371447838130308
20
41.850951747742826
10
-9.3293042019111603
20
41.836080071016639
10
-9.3210906982419992
20
41.820487976073998
10
-9.2955780029300001
20
41.765571594238004
10
-9.2731475830080008
20
41.710597991942997
10
-9.2534790039059995
20
41.655578613281001
10
-9.2363433837890003
20
41.600517272948998
10
-9.2214813232419992
20
41.545433044433999
10
-9.2086639404300001
20
41.490325927734006
10
-9.1976623535160016
20
41.435199737548999
10
-9.1882934570310013
20
41.380058288574006
10
-9.1803588867190005
20
41.324909210205007
10
-9.1737060546880009
20
41.269752502441001
10
-9.1681823730469993
20
41.21459197998
10
-9.1636199951169992
20
41.159423828125
10
-9.159912109375
20
41.10425567627
10
-9.1569213867190022
20
41.04907989502
10
-9.1545562744140003
20
40.993911743164006
10
-9.1527099609379992
20
40.938735961913999
10
-9.1513061523440005
20
40.883567810058999
10
-9.1502532958980005
20
40.828392028809006
10
-9.1494750976559995
20
40.773216247558999
10
-9.14892578125
20
40.718040466309006
10
-9.1485748291019995
20
40.662864685058999
10
-9.1483306884769995
20
40.607688903808999
10
-9.1481781005859997
20
40.552516937256009
10
-9.1481018066409998
20
40.497344970702997
10
-9.1480560302730005
20
40.442169189452997
10
-9.1480255126949999
20
40.331817626952997
10
-9.1480255126949999
20
39.818634033202997
10
-9.1480560302730005
20
39.708282470702997
10
-9.1481018066409998
20
39.65311050415
10
-9.1481781005859997
20
39.597934722900007
10
-9.1483306884769995
20
39.54275894165
10
-9.1485748291019995
20
39.487586975097997
10
-9.14892578125
20
39.432411193847997
10
-9.1494750976559995
20
39.377235412597997
10
-9.1502532958980005
20
39.322059631347997
10
-9.1513061523440005
20
39.266887664795
10
-9.1527099609379992
20
39.211715698242003
10
-9.1545562744140003
20
39.156539916992003
10
-9.1569213867190022
20
39.101367950438998
10
-9.159912109375
20
39.046195983887003
10
-9.1636199951169992
20
38.991027832031001
10
-9.1681823730469993
20
38.935859680176002
10
-9.1737060546880009
20
38.880699157715
10
-9.1803588867190005
20
38.825542449951001
10
-9.1882934570310013
20
38.770393371582003
10
-9.1976623535160016
20
38.715251922607003
10
-9.2086639404300001
20
38.660125732422003
10
-9.2214813232419992
20
38.605018615722997
10
-9.2363433837890003
20
38.54993057251
10
-9.2534790039059995
20
38.494873046875
10
-9.2731475830080008
20
38.439853668212997
10
-9.2955780029300001
20
38.384880065917997
10
-9.3210906982419992
20
38.329963684082003
10
-9.3499908447269995
20
38.275123596191001
10
-9.3825836181640003
20
38.220375061035
10
-9.4192657470699999
20
38.1657371521
10
-9.4603881835940005
20
38.111240386962997
10
-9.50634765625
20
38.056915283202997
10
-9.5575866699219993
20
38.002796173096002
10
-9.6145629882809995
20
37.948928833007997
10
-9.6777038574219993
20
37.895370483397997
10
-9.74755859375
20
37.842170715332003
10
-9.8245849609379992
20
37.789413452147997
10
-9.9093322753910016
20
37.737178802490007
10
-10.002288818359
20
37.685562133788999
10
-10.103942871094
20
37.634674072266002
10
-10.214782714844002
20
37.584629058837997
10
-10.335189819336
20
37.53557205200201
10
-10.465545654296999
20
37.487640380859006
10
-10.606063842773001
20
37.440994262695
10
-10.756912231445
20
37.395782470702997
10
-10.918075561523002
20
37.352169036865
10
-11.089431762695002
20
37.31029510498
10
-11.270690917969002
20
37.270301818847997
10
-11.461441040039
20
37.232292175292997
10
-11.661148071289
20
37.196365356445
10
-11.869155883789
20
37.162570953368999
10
-12.084762573242001
20
37.13094329834
10
-12.307235717773002
20
37.10147857666
10
-12.535827636719002
20
37.07414627075201
10
-12.769805908203002
20
37.048896789551002
10
-13.00846862793
20
37.025657653808999
10
-13.251174926758003
20
37.004341125487997
10
-13.497344970703002
20
36.984851837157997
10
-13.746475219727001
20
36.967086791992003
10
-13.998092651366999
20
36.950931549072003
10
-14.251785278320002
20
36.93628692627
10
-14.507232666016002
20
36.923046112061002
10
-14.764129638672001
20
36.911102294922003
10
-15.022247314453001
20
36.900356292725
10
-15.281341552734
20
36.890720367432003
10
-15.541244506836001
20
36.882095336913999
10
-15.76579284668
20
36.875473022461009
10
-15.784515380859002
20
36.842269897461001
10
-15.885574340820002
20
36.70182800293
10
-16.004104614258001
20
36.565216064452997
10
-16.138320922851999
20
36.432685852051002
10
-16.286865234375
20
36.304462432861001
10
-16.448638916016002
20
36.18074798584
10
-16.622711181641002
20
36.061756134033004
10
-16.808349609375
20
35.947700500487997
10
-17.0048828125
20
35.83882522583
10
-17.21174621582
20
35.735385894775
10
-17.332125969481172
20
35.681112442959268
10
-17.428451538086001
20
35.637682172770809
10
-17.554044507065079
20
35.586784259539435
10
-17.654541015625
20
35.546058654785
10
-17.889602661133001
20
35.460918426513999
10
-18.133224487305
20
35.382736206055
10
-18.385025024413999
20
35.31209564209
10
-18.644592285156001
20
35.249713897705
10
-18.911437988281001
20
35.196521759032997
10
-19.184982299805
20
35.153793334961001
10
-19.464447021483998
20
35.12345504760701
10
-19.748596191406001
20
35.109729766846002
10
-30.490615844726999
20
35.109729766846002
10
-30.774765014648004
20
35.12345504760701
10
-31.054229736328001
20
35.153793334961001
10
-31.327774047851999
20
35.196521759032997
10
-31.594619750977003
20
35.249713897705
10
-31.854187011718999
20
35.31209564209
10
-32.105987548827997
20
35.382736206055
10
-32.214282672301799
20
35.41748987879074
10
-32.312898720648192
20
35.449136434006718
10
-32.349609375
20
35.460918426513999
10
-32.584671020507997
20
35.546058654785
10
-32.810760498047003
20
35.637680053711009
10
-33.027465820312003
20
35.735385894775
10
-33.234329223632997
20
35.83882522583
10
-33.430862426757997
20
35.947700500487997
10
-33.616500854492003
20
36.061756134033004
10
-33.790573120117003
20
36.18074798584
10
-33.952346801757997
20
36.304462432861001
10
-34.100891113281001
20
36.432685852051002
10
-34.235107421875
20
36.565216064452997
10
-34.353637695312003
20
36.70182800293
10
-34.454696655272997
20
36.842269897461001
10
-34.492584228516002
20
36.909461975097997
10
-34.531921386719006
20
36.911102294922003
10
-34.788818359375
20
36.923046112061002
10
-35.044281005858998
20
36.93628692627
10
-35.297973632812003
20
36.950931549072003
10
-35.549591064452997
20
36.967086791992003
10
-35.798706054687997
20
36.984851837157997
10
-36.044891357422003
20
37.004341125487997
10
-36.28759765625
20
37.025657653808999
10
-36.526260375977003
20
37.048896789551002
10
-36.760238647461001
20
37.07414627075201
10
-36.988830566406001
20
37.10147857666
10
-37.211303710937997
20
37.13094329834
10
-37.426910400391009
20
37.162570953368999
10
-37.634918212891009
20
37.196365356445
10
-37.834625244141009
20
37.232292175292997
10
-38.025375366211009
20
37.270301818847997
10
-38.206634521484006
20
37.31029510498
10
-38.377990722656001
20
37.352169036865
10
-38.539154052734006
20
37.395782470702997
10
-38.690002441406008
20
37.440994262695
10
-38.830520629882997
20
37.487640380859006
10
-38.960876464843999
20
37.53557205200201
10
-39.081283569336009
20
37.584629058837997
10
-39.192123413086009
20
37.634674072266002
10
-39.29377746582
20
37.685562133788999
10
-39.386734008789006
20
37.737178802490007
10
-39.47148132324201
20
37.789413452147997
10
-39.54850769043
20
37.842170715332003
10
-39.618362426758004
20
37.895370483397997
10
-39.681503295898004
20
37.948928833007997
10
-39.738479614258004
20
38.002796173096002
10
-39.78971862793
20
38.056915283202997
10
-39.835678100586009
20
38.111240386962997
10
-39.876800537108998
20
38.1657371521
10
-39.913482666016009
20
38.220375061035
10
-39.946075439452997
20
38.275123596191001
10
-39.974975585937997
20
38.329963684082003
10
-40.00048828125
20
38.384880065917997
10
-40.022918701172003
20
38.439853668212997
10
-40.042587280272997
20
38.494873046875
10
-40.059722900391002
20
38.54993057251
10
-40.074584960937997
20
38.605018615722997
10
-40.08740234375
20
38.660125732422003
10
-40.098403930664006
20
38.715251922607003
10
-40.107772827147997
20
38.770393371582003
10
-40.115707397461009
20
38.825542449951001
10
-40.122360229492003
20
38.880699157715
10
-40.127899169922003
20
38.935859680176002
10
-40.132446289062003
20
38.991027832031001
10
-40.136154174805007
20
39.046195983887003
10
-40.139144897461001
20
39.101367950438998
10
-40.141510009766002
20
39.156539916992003
10
-40.143341064452997
20
39.211715698242003
10
-40.144760131836001
20
39.266887664795
10
-40.145812988281008
20
39.322059631347997
10
-40.146591186522997
20
39.377235412597997
10
-40.147140502930007
20
39.432411193847997
10
-40.147491455077997
20
39.487586975097997
10
-40.14775085449201
20
39.54275894165
10
-40.147888183593999
20
39.597934722900007
10
-40.147964477539006
20
39.65311050415
10
-40.148010253906001
20
39.708282470702997
10
-40.148040771484006
20
39.818634033202997
10
-40.148040771484006
20
40.331817626952997
10
-40.148010253906001
20
40.442169189452997
10
-40.147964477539006
20
40.497344970702997
10
-40.147888183593999
20
40.552516937256009
10
-40.14775085449201
20
40.607688903808999
10
-40.147491455077997
20
40.662864685058999
10
-40.147140502930007
20
40.718040466309006
10
-40.146591186522997
20
40.773216247558999
10
-40.145812988281008
20
40.828392028809006
10
-40.144760131836001
20
40.883567810058999
10
-40.143341064452997
20
40.938735961913999
10
-40.141510009766002
20
40.993911743164006
10
-40.139144897461001
20
41.04907989502
10
-40.136154174805007
20
41.10425567627
10
-40.132446289062003
20
41.159423828125
10
-40.127899169922003
20
41.21459197998
10
-40.122360229492003
20
41.269752502441001
10
-40.115707397461009
20
41.324909210205007
10
-40.107772827147997
20
41.380058288574006
10
-40.098403930664006
20
41.435199737548999
10
-40.08740234375
20
41.490325927734006
10
-40.074584960937997
20
41.545433044433999
10
-40.059722900391002
20
41.600517272948998
10
-40.042587280272997
20
41.655578613281001
10
-40.022918701172003
20
41.710597991942997
10
-40.00048828125
20
41.765571594238004
10
-39.974975585937997
20
41.820487976073998
10
-39.946075439452997
20
41.875328063965
10
-39.913482666016009
20
41.930076599121008
10
-39.876800537108998
20
41.984710693359006
10
-39.835678100586009
20
42.039207458496001
10
-39.78971862793
20
42.093536376953004
10
-39.738479614258004
20
42.147655487061002
10
-39.681503295898004
20
42.201522827147997
10
-39.618362426758004
20
42.255081176758004
10
-39.54850769043
20
42.308280944824006
10
-39.47148132324201
20
42.361038208007997
10
-39.386734008789006
20
42.413272857666009
10
-39.29377746582
20
42.464889526367003
10
-39.192123413086009
20
42.515777587891002
10
-39.081283569336009
20
42.565818786621001
10
-38.960876464843999
20
42.614883422852003
10
-38.830520629882997
20
42.66281127929701
10
-38.690002441406008
20
42.709457397461001
10
-38.539154052734006
20
42.754669189452997
10
-38.377990722656001
20
42.798282623291001
10
-38.206634521484006
20
42.840156555176002
10
-38.025375366211009
20
42.880149841308999
10
-37.834625244141009
20
42.918159484862997
10
-37.634918212891009
20
42.954086303711001
10
-37.426910400391009
20
42.987880706787003
10
-37.211303710937997
20
43.019508361816001
10
-36.988830566406001
20
43.048973083496008
10
-36.760238647461001
20
43.076305389404006
10
-36.526260375977003
20
43.101554870605
10
-36.28759765625
20
43.124794006347997
10
-36.044891357422003
20
43.146110534667997
10
-35.798706054687997
20
43.165596008301002
10
-35.549591064452997
20
43.183364868163999
10
-35.297973632812003
20
43.19951629638701
10
-35.044281005858998
20
43.21416473388701
10
-34.788818359375
20
43.227405548096002
10
-34.532440185547003
20
43.239326477051002
10
-34.531921386719006
20
43.239349365233998
10
-34.273818969727003
20
43.25009536743201
10
-34.014724731445
20
43.25973510742201
10
-33.754821777343999
20
43.268356323242003
10
-33.494247436522997
20
43.276042938232003
10
-33.233139038086001
20
43.28288269043
10
-32.971588134766002
20
43.288940429687997
10
-32.709686279297003
20
43.294288635253999
10
-32.447494506836001
20
43.298995971680007
10
-32.185104370117003
20
43.303115844727003
10
-31.922515869141002
20
43.306709289551002
10
-31.659790039061999
20
43.30982208252
10
-31.39697265625
20
43.312515258789006
10
-31.134048461914002
20
43.314819335937997
10
-30.871078491211001
20
43.316787719727003
10
-30.608062744141002
20
43.318450927733998
10
-30.345001220703001
20
43.319839477539006
10
-30.081924438477003
20
43.321006774902003
10
-29.818832397461001
20
43.321960449218999
10
-29.555709838866999
20
43.322738647461001
10
-29.292587280273001
20
43.323360443115
10
-29.029464721680004
20
43.323860168457003
10
-28.766311645508004
20
43.324245452881001
10
-28.503189086913999
20
43.32453918457
10
-28.240051269531001
20
43.324760437012003
10
-27.976913452148004
20
43.324920654297003
10
-27.713775634766002
20
43.325035095215007
10
-27.450622558594002
20
43.325115203857003
10
-27.187484741211001
20
43.325164794922003
10
-26.924346923828004
20
43.3251953125
10
-26.661209106445
20
43.325210571288999
10
-26.398056030273001
20
43.325222015381001
10
-26.134918212891005
20
43.325225830078004
10
-23.161148071288999
20
43.325225830078004
10
-22.898010253906001
20
43.325222015381001
10
-22.634857177733998
20
43.325210571288999
10
-22.371719360351999
20
43.3251953125
10
-22.108581542969002
20
43.325164794922003
10
-21.845443725586001
20
43.325115203857003
10
-21.582290649413999
20
43.325035095215007
10
-21.319152832031001
20
43.324920654297003
10
-21.056015014648001
20
43.324760437012003
10
-20.792877197266005
20
43.32453918457
10
-20.529754638672003
20
43.324245452881001
10
-20.2666015625
20
43.323860168457003
10
-20.003479003906005
20
43.323360443115
10
-19.740356445311999
20
43.322738647461001
10
-19.477249145508001
20
43.321960449218999
10
-19.214141845703001
20
43.321006774902003
10
-18.951065063476999
20
43.319839477539006
10
-18.688003540038999
20
43.318450927733998
10
-18.42497253418
20
43.316787719727003
10
-18.162017822266002
20
43.314819335937997
10
-17.89909362793
20
43.312515258789006
10
-17.636276245116999
20
43.30982208252
10
-17.373550415038999
20
43.306709289551002
10
-17.110961914061999
20
43.303115844727003
10
-16.848556518555
20
43.298995971680007
10
-16.586380004883001
20
43.294288635253999
10
-16.324478149413999
20
43.288940429687997
10
-16.062927246093999
20
43.28288269043
10
-15.801818847656
20
43.276042938232003
10
-15.726211547851999
20
43.273811340332003
10
-15.541244506836001
20
43.268356323242003
10
-15.281341552734
20
43.25973510742201
10
-15.022247314453001
20
43.25009536743201
10
-14.764129638672001
20
43.239349365233998
10
-14.507232666016002
20
43.227405548096002
10
-14.251785278320002
20
43.21416473388701
10
-13.998092651366999
20
43.19951629638701
10
-13.746475219727001
20
43.183364868163999
10
-13.497344970703002
20
43.165596008301002
10
-13.251174926758003
20
43.146110534667997
10
-13.00846862793
20
43.124794006347997
10
-12.769805908203002
20
43.101554870605
10
-12.535827636719002
20
43.076305389404006
10
-12.307235717773002
20
43.048973083496008
10
-12.084762573242001
20
43.019508361816001
10
-11.869155883789
20
42.987880706787003
10
-11.661148071289
20
42.954086303711001
10
-11.461441040039
20
42.918159484862997
0
ENDSEC
0
SECTION
2
OBJECTS
0
DICTIONARY
5
C
100
AcDbDictionary
3
ACAD_GROUP
350
D
3
ACAD_MLINESTYLE
350
17
0
DICTIONARY
5
D
100
AcDbDictionary
0
DICTIONARY
5
1A
330
C
100
AcDbDictionary
0
DICTIONARY
5
17
100
AcDbDictionary
0
ENDSEC
0
EOF
