<?xml version="1.0" standalone="no"?>
<!DOCTYPE svg PUBLIC "-//W3C//DTD SVG 1.1//EN"
  "http://www.w3.org/Graphics/SVG/1.1/DTD/svg11.dtd">
<svg width="49.582000732421875mm" height="74.49600219726561mm" viewBox="-24.791000366210938 -37.248001098632805 49.582000732421875 74.49600219726561" xmlns="http://www.w3.org/2000/svg" version="1.1">
	<title>svgOutput</title>
	<desc>made with tinkercad</desc>
<path d="M 20.663999557495117 -36.248001098632805 L 20.663999557495117 -32.76800155639648 L 20.663999557495117 -24.57600021362304 L 20.663999557495117 -23.771999359130856 L 21.503999710083008 -23.771999359130856 L 22.527999877929688 -23.771999359130856 L 23.791000366210938 -23.771999359130856 L 23.791000366210938 -22.527999877929684 L 23.791000366210938 -20.479999542236325 L 23.791000366210938 -16.773000717163082 L 20.663999557495117 -16.773000717163082 L 20.663999557495117 -16.38400077819824 L 20.663999557495117 -12.28800010681152 L 20.663999557495117 -8.19200038909912 L 20.663999557495117 -4.09600019454956 L 20.663999557495117 1.1102230246251565e-16 L 20.663999557495117 1.695000052452087 L 23.791000366210938 1.695000052452087 L 23.791000366210938 4.09600019454956 L 23.791000366210938 8.19200038909912 L 23.791000366210938 12.28800010681152 L 23.791000366210938 16.38400077819824 L 23.791000366210938 20.479999542236325 L 23.791000366210938 20.69400024414062 L 20.663999557495117 20.69400024414062 L 20.663999557495117 24.57600021362304 L 20.663999557495117 28.67200088500976 L 20.663999557495117 32.76800155639648 L 20.663999557495117 34.81600189208984 L 20.663999557495117 35.32799911499023 L 20.663999557495117 35.84000015258788 L 20.663999557495117 36.248001098632805 L 20.479999542236328 36.248001098632805 L 19.45599937438965 36.248001098632805 L 18.43199920654297 36.248001098632805 L 16.384000778198242 36.248001098632805 L 0 36.248001098632805 L -20.63599967956543 36.248001098632805 L -20.63599967956543 32.76800155639648 L -20.63599967956543 18.881000518798825 L -23.791000366210938 18.881000518798825 L -23.791000366210938 16.38400077819824 L -23.791000366210938 11.88199996948242 L -20.63599967956543 11.88199996948242 L -20.63599967956543 5.563000202178954 L -20.63599967956543 1.1102230246251565e-16 L -20.63599967956543 -16.38400077819824 L -20.63599967956543 -16.773000717163082 L -23.791000366210938 -16.773000717163082 L -23.791000366210938 -23.771999359130856 L -20.63599967956543 -23.771999359130856 L -20.63599967956543 -32.76800155639648 L -20.63599967956543 -36.248001098632805 L 0 -36.248001098632805 L 20.663999557495117 -36.248001098632805 M 14.918000221252441 -15.182000160217282 L 14.918000221252441 -15.198432922363278 L 14.918000221252441 -15.256650924682614 L 14.918000221252441 -15.282808303833004 L 14.918000221252441 -15.336328506469723 L 14.918000221252441 -15.427412986755368 L 14.918000221252441 -16.38400077819824 L 14.918000221252441 -18.02499961853027 L 8.718000411987305 -18.02499961853027 L 8.718000411987305 -16.38400077819824 L 8.718000411987305 -15.197148323059078 L 8.718000411987305 -15.182000160217282 L 8.57800006866455 -15.02499961853027 L 8.442999839782715 -14.859000205993649 L 8.317999839782715 -14.68599987030029 L 8.286561965942383 -14.637903213500973 L 8.192000389099121 -14.488912582397457 L 8.160778045654297 -14.43972015380859 L 8.132027626037598 -14.39001083374023 L 8.105426788330078 -14.339226722717282 L 8.103757858276367 -14.33600044250488 L 7.962091445922852 -14.062064170837399 L 7.938446044921875 -14.009667396545407 L 7.9172186851501465 -13.956465721130368 L 7.802404403686523 -13.666138648986813 L 7.784132957458496 -13.611861228942868 L 7.737329483032227 -13.462676048278805 L 7.717983245849609 -13.393351554870602 L 7.654360294342041 -13.11765098571777 L 7.642268657684326 -13.061761856079098 L 7.632864475250244 -13.005066871643063 L 7.5970306396484375 -12.763736724853512 L 7.590581893920898 -12.70677280426025 L 7.588432312011719 -12.678022384643551 L 7.587088584899902 -12.649271011352536 L 7.571000099182129 -12.435000419616696 L 7.570193767547607 -12.377767562866207 L 7.571000099182129 -12.349016189575192 L 7.572029113769531 -12.326995849609371 L 7.572343349456787 -12.320265769958493 L 7.573334693908691 -12.28800010681152 L 7.585506916046143 -11.891722679138182 L 7.587656497955322 -11.86324119567871 L 7.594105243682861 -11.806277275085447 L 7.597344398498535 -11.785247802734373 L 7.641639709472656 -11.497667312622069 L 7.645938873291016 -11.469185829162596 L 7.656686782836914 -11.41275882720947 L 7.7342047691345215 -11.109999656677244 L 7.7406535148620605 -11.082055091857908 L 7.760000228881836 -11.012999534606932 L 7.828000068664551 -10.810999870300291 L 7.9070000648498535 -10.612000465393065 L 7.994999885559082 -10.41800022125244 L 8.087747573852539 -10.239999771118162 L 8.093999862670898 -10.227999687194822 L 8.192000389099121 -10.05947685241699 L 8.201000213623047 -10.043999671936033 L 8.317999839782715 -9.864999771118162 L 8.342988967895508 -9.829800605773924 L 8.434401512145996 -9.703285217285154 L 8.469869613647461 -9.658143997192381 L 8.670977592468262 -9.421202659606932 L 8.718000411987305 -9.368000030517576 L 8.718000411987305 -9.36580181121826 L 8.718000411987305 -9.3107852935791 L 8.718000411987305 -9.253034591674803 L 8.718000411987305 -8.19200038909912 L 8.718000411987305 -6.526000022888182 L 12.288000106811523 -6.526000022888182 L 14.336000442504883 -6.526000022888182 L 14.847999572753906 -6.526000022888182 L 14.918000221252441 -6.526000022888182 L 14.918000221252441 -6.6560001373291 L 14.918000221252441 -7.16800022125244 L 14.918000221252441 -8.19200038909912 L 14.918000221252441 -9.090866088867186 L 14.918000221252441 -9.237965583801268 L 14.918000221252441 -9.33874988555908 L 14.918000221252441 -9.36770725250244 L 14.918000221252441 -9.368000030517576 L 15.020381927490234 -9.483545303344725 L 15.067404747009277 -9.53674793243408 L 15.081603050231934 -9.554819107055662 L 15.102872848510742 -9.581889152526854 L 15.119800567626953 -9.605265617370604 L 15.330158233642578 -9.883083343505858 L 15.331877708435059 -9.885354995727537 L 15.393409729003906 -9.982086181640623 L 15.477509498596191 -10.113719940185545 L 15.546586036682129 -10.239999771118162 L 15.57111644744873 -10.28484535217285 L 15.584819793701172 -10.310102462768553 L 15.622437477111816 -10.387487411499022 L 15.730669975280762 -10.617115974426268 L 15.752434730529785 -10.670318603515623 L 15.816058158874512 -10.834130287170408 L 15.839434623718262 -10.901842117309569 L 15.887701034545898 -11.050296783447264 L 15.903285026550293 -11.105648040771483 L 15.944238662719727 -11.256296157836912 L 15.946016311645508 -11.263999938964842 L 15.96178913116455 -11.33235168457031 L 15.982748031616211 -11.43418788909912 L 16.011999130249023 -11.587761878967283 L 16.023700714111328 -11.665279388427733 L 16.035524368286133 -11.761204719543455 L 16.05307388305664 -11.91624069213867 L 16.06258201599121 -12.072008132934567 L 16.064775466918945 -12.150258064270016 L 16.064775466918945 -12.228507041931149 L 16.064682006835938 -12.28800010681152 L 16.06450653076172 -12.400473594665524 L 16.062313079833984 -12.47799205780029 L 16.058656692504883 -12.556241035461422 L 16.044761657714844 -12.71200847625732 L 16.035356521606445 -12.797722816467282 L 16.025850296020508 -12.875241279602047 L 16.000255584716797 -13.029545783996578 L 15.990044593811035 -13.085971832275387 L 15.957136154174805 -13.238082885742184 L 15.938809394836426 -13.3120002746582 L 15.932952880859375 -13.33562088012695 L 15.9132080078125 -13.411675453186032 L 15.868597984313965 -13.561593055725094 L 15.824800491333008 -13.68277549743652 L 15.799936294555664 -13.756637573242184 L 15.765814781188965 -13.84598064422607 L 15.744357109069824 -13.902166366577145 L 15.681465148925781 -14.045501708984371 L 15.631218910217285 -14.148681640624996 L 15.561014175415039 -14.288359642028805 L 15.534120559692383 -14.33600044250488 L 15.484227180480957 -14.424382209777828 L 15.43962287902832 -14.498005867004391 L 15.398670196533203 -14.563822746276852 L 15.3116455078125 -14.693994522094723 L 15.262205123901367 -14.764661788940426 L 15.192000389099121 -14.859000205993649 L 15.057999610900879 -15.02499961853027 L 14.918000221252441 -15.182000160217282 M 13.513399124145508 -1.9192049503326412 L 13.421255111694336 -1.4738421440124507 L 13.40272045135498 -1.3658111095428462 L 13.402445793151855 -1.3642133474349971 L 13.394116401672363 -1.306174516677856 L 13.308553695678711 -0.7130886316299436 L 13.305282592773438 -0.6872012615203855 L 13.293238639831543 -0.5919058322906492 L 13.280072212219238 -0.4650803208351133 L 13.234639167785645 1.1102230246251565e-16 L 13.212060928344727 0.23111911118030554 L 13.196475982666016 0.42941829562187195 L 13.157258987426758 1.0240000486373901 L 13.151135444641113 1.1168421506881714 L 13.146836280822754 1.1845539808273315 L 13.135551452636719 1.4008558988571167 L 13.128890991210938 1.53600001335144 L 13.120214462280273 1.7120622396469112 L 13.118510246276855 1.7466413974761958 L 13.118000030517578 1.7569999694824214 L 13.050999641418457 1.7949999570846553 L 12.90999984741211 1.8960000276565547 L 12.800000190734863 1.9922499656677242 L 12.77400016784668 2.0150001049041744 L 12.741246223449707 2.04800009727478 L 12.640999794006348 2.1489999294281 L 12.512999534606934 2.29800009727478 L 12.388999938964844 2.4590001106262203 L 12.288000106811523 2.606680631637573 L 12.270000457763672 2.6329998970031734 L 12.156000137329102 2.8190000057220455 L 12.04699993133545 3.015000104904174 L 12.018637657165527 3.07200002670288 L 11.944000244140625 3.2219998836517325 L 11.845999717712402 3.438999891281127 L 11.755000114440918 3.6649999618530265 L 11.670000076293945 3.9000000953674308 L 11.653911590576172 3.9482660293579093 L 11.632683753967285 4.01382827758789 L 11.60637092590332 4.09600019454956 L 11.590999603271484 4.144000053405761 L 11.520999908447266 4.395999908447265 L 11.458000183105469 4.655000209808349 L 11.404999732971191 4.921999931335448 L 11.362000465393066 5.195000171661376 L 11.331999778747559 5.4749999046325675 L 11.317999839782715 5.758999824523925 L 11.317999839782715 8.19200038909912 L 11.317999839782715 16.38400077819824 L 11.317999839782715 16.499999999999996 L 11.331999778747559 16.784999847412106 L 11.362000465393066 17.063999176025387 L 11.404999732971191 17.337999343872067 L 11.458000183105469 17.60400009155273 L 11.520999908447266 17.864000320434567 L 11.590999603271484 18.115999221801754 L 11.670000076293945 18.358999252319332 L 11.696404457092285 18.431999206542965 L 11.755000114440918 18.593999862670895 L 11.845999717712402 18.819999694824215 L 11.944000244140625 19.037000656127926 L 12.04699993133545 19.24399948120117 L 12.156000137329102 19.440000534057614 L 12.270000457763672 19.62599945068359 L 12.288000106811523 19.65231895446777 L 12.388999938964844 19.799999237060543 L 12.512999534606934 19.961999893188473 L 12.640999794006348 20.11000061035156 L 12.77400016784668 20.245000839233395 L 12.90999984741211 20.363000869750973 L 13.050999641418457 20.464000701904293 L 13.078789710998535 20.479999542236325 L 13.083999633789062 20.48299980163574 L 13.110326766967773 21.215764999389645 L 13.11596965789795 21.3804759979248 L 13.117158889770508 21.40592765808105 L 13.128867149353027 21.65642929077148 L 13.152268409729004 22.123731613159176 L 13.17640209197998 22.491575241088864 L 13.189836502075195 22.69336891174316 L 13.230789184570312 23.1848030090332 L 13.245299339294434 23.34736633300781 L 13.285520553588867 23.733493804931637 L 13.295999526977539 23.826999664306637 L 13.354999542236328 24.271999359130852 L 13.373271942138672 24.383510589599602 L 13.405415534973145 24.57600021362304 L 13.436163902282715 24.76012992858886 L 13.456584930419922 24.862504959106438 L 13.513626098632812 25.134548187255852 L 13.5361967086792 25.226711273193352 L 13.598357200622559 25.470235824584954 L 13.622540473937988 25.55138206481933 L 13.689820289611816 25.764190673828118 L 13.715615272521973 25.834053039550774 L 13.786551475524902 26.017608642578118 L 13.813421249389648 26.07726097106933 L 13.887282371520996 26.232295989990227 L 13.914958000183105 26.282274246215813 L 13.972000122070312 26.38100051879882 L 13.993227005004883 26.413244247436516 L 14.099266052246094 26.56242942810058 L 14.128016471862793 26.598165512084954 L 14.150925636291504 26.6240005493164 L 14.196759223937988 26.67568397521972 L 14.225778579711914 26.70470428466796 L 14.240287780761719 26.717063903808587 L 14.25479793548584 26.72808074951171 L 14.336000442504883 26.796827316284173 L 14.37399959564209 26.829000473022454 L 14.403556823730469 26.84753990173339 L 14.4183349609375 26.855333328247063 L 14.436994552612305 26.866415023803704 L 14.538999557495117 26.92700004577636 L 14.56828784942627 26.939897537231438 L 14.583066940307617 26.94527053833007 L 14.610417366027832 26.956611633300774 L 14.70300006866455 26.99500083923339 L 14.77228832244873 27.014080047607415 L 14.840999603271484 27.033000946044915 L 14.951000213623047 27.055000305175774 L 15.062000274658203 27.070999145507805 L 15.17199993133545 27.082000732421868 L 15.281999588012695 27.090000152587884 L 15.359999656677246 27.093513488769524 L 15.392999649047852 27.094999313354485 L 15.503000259399414 27.0979995727539 L 15.61299991607666 27.099000930786126 L 15.723999977111816 27.10000038146972 L 16.384000778198242 27.10000038146972 L 16.802047729492188 27.10000038146972 L 16.88422203063965 27.10000038146972 L 16.91377830505371 27.099731445312493 L 16.994220733642578 27.098268508911126 L 17.0240478515625 27.0979995727539 L 17.105220794677734 27.096536636352532 L 17.215221405029297 27.09353828430175 L 17.24477767944336 27.092193603515618 L 17.32522201538086 27.08780670166015 L 17.35504722595215 27.08565711975097 L 17.408000946044922 27.080886840820305 L 17.436222076416016 27.078344345092766 L 17.465778350830078 27.075387954711907 L 17.546220779418945 27.06588172912597 L 17.57577896118164 27.06158256530761 L 17.656221389770508 27.04768753051757 L 17.68577766418457 27.041774749755852 L 17.766952514648438 27.022762298583977 L 17.796777725219727 27.01469993591308 L 17.877222061157227 26.989835739135735 L 17.899255752563477 26.982313156127923 L 17.920000076293945 26.974216461181634 L 17.95922088623047 26.958911895751946 L 17.981523513793945 26.949506759643548 L 18.03710174560547 26.92244911193847 L 18.066390991210938 26.90686416625976 L 18.13147735595703 26.87029838562011 L 18.15350914001465 26.856058120727532 L 18.19300079345703 26.829000473022454 L 18.24799919128418 26.788000106811516 L 18.302000045776367 26.742000579833977 L 18.356000900268555 26.690999984741204 L 18.40999984741211 26.634000778198235 L 18.41857147216797 26.6240005493164 L 18.43199920654297 26.608333587646477 L 18.464000701904297 26.570999145507805 L 18.517000198364258 26.500999450683587 L 18.56999969482422 26.423999786376946 L 18.621999740600586 26.33900070190429 L 18.67300033569336 26.246000289916985 L 18.724000930786133 26.143999099731438 L 18.73854637145996 26.111999511718743 L 18.77400016784668 26.03400039672851 L 18.822999954223633 25.913000106811516 L 18.871000289916992 25.783000946044915 L 18.917999267578125 25.64200019836425 L 18.930599212646484 25.60000038146972 L 18.96299934387207 25.492000579833977 L 19.006999969482422 25.329999923706048 L 19.048999786376953 25.15900039672851 L 19.089000701904297 24.978000640869134 L 19.12700080871582 24.787000656127923 L 19.163000106811523 24.58699989318847 L 19.164745330810547 24.57600021362304 L 19.17186737060547 24.531110763549798 L 19.24134063720703 24.058689117431634 L 19.24993896484375 24.00091934204101 L 19.257999420166016 23.940999984741207 L 19.265254974365234 23.87973594665527 L 19.32010269165039 23.36709403991699 L 19.326820373535156 23.304218292236325 L 19.344017028808594 23.0994701385498 L 19.374000549316406 22.74186515808105 L 19.409833908081055 22.190462112426754 L 19.424612045288086 21.962606430053707 L 19.438507080078125 21.681787490844723 L 19.444955825805664 21.543945312499996 L 19.475669860839844 20.670038223266598 L 19.4818058013916 20.479999542236325 L 19.486955642700195 20.32046318054199 L 19.490447998046875 20.127000808715817 L 19.513118743896484 18.97446823120117 L 19.51634407043457 18.745000839233395 L 19.51702880859375 18.65486907958984 L 19.517955780029297 18.532997131347653 L 19.53013801574707 16.38400077819824 L 19.53038787841797 16.339822769165036 L 19.531461715698242 16.145553588867184 L 19.531909942626953 15.917326927185055 L 19.531999588012695 15.871750831604 L 19.53253746032715 15.102736473083493 L 19.534000396728516 13.202082633972164 L 19.534000396728516 12.28800010681152 L 19.534000396728516 8.631800651550291 L 19.533267974853516 8.24713611602783 L 19.53312873840332 8.19200038909912 L 19.533000946044922 8.140999794006346 L 19.533000946044922 7.8090639114379865 L 19.533000946044922 7.614999771118162 L 19.531999588012695 7.089000225067137 L 19.530536651611328 6.511271476745604 L 19.530269622802734 6.369667530059813 L 19.52973175048828 6.228332519531248 L 19.524538040161133 5.317667484283446 L 19.523462295532227 5.176332473754882 L 19.515419006347656 4.407733917236327 L 19.514074325561523 4.266667366027831 L 19.513452529907227 4.219885826110839 L 19.51219367980957 4.125332355499267 L 19.511634826660156 4.09600019454956 L 19.49122428894043 3.026529073715209 L 19.488000869750977 2.8859999179840083 L 19.480207443237305 2.64148473739624 L 19.45989990234375 2.04800009727478 L 19.450956344604492 1.786592841148376 L 19.45292854309082 1.7885403633117671 L 19.45382308959961 1.789424896240234 L 19.46432113647461 1.7997909784317012 L 19.49419403076172 1.8292934894561763 L 19.71565818786621 2.04800009727478 L 19.774736404418945 2.106343507766723 L 19.732715606689453 2.04800009727478 L 19.4829158782959 1.7011678218841548 L 19.45499610900879 1.6624045372009273 L 19.4454345703125 1.6491278409957881 L 19.44477653503418 1.6482132673263545 L 19.441282272338867 1.579695343971252 L 19.385704040527344 0.6502104997634888 L 19.38167381286621 0.5819612145423889 L 19.37253761291504 0.44734349846839905 L 19.3553409576416 0.2520000040531159 L 19.33370018005371 1.1102230246251565e-16 L 19.309999465942383 -0.27599999308586104 L 19.304723739624023 -0.3229853510856627 L 19.27533721923828 -0.5846343636512754 L 19.27197265625 -0.6145927906036375 L 19.253969192504883 -0.7688254714012143 L 19.217695236206055 -0.9918448925018307 L 19.172353744506836 -1.3121551275253291 L 19.133319854736328 -1.5429658889770503 L 19.12189483642578 -1.610526323318481 L 19.094104766845703 -1.7494736909866329 L 19.043052673339844 -1.9536842107772823 L 19.022323608398438 -2.04800009727478 L 19.0137996673584 -2.08678126335144 L 18.917999267578125 -2.4400000572204585 L 18.883628845214844 -2.5423822402954097 L 18.854877471923828 -2.622454404830932 L 18.7839412689209 -2.8060109615325923 L 18.76056480407715 -2.8608255386352535 L 18.686702728271484 -3.0165927410125724 L 18.6592960357666 -3.0689890384674063 L 18.583972930908203 -3.198429346084594 L 18.55575942993164 -3.241689682006835 L 18.497255325317383 -3.3235955238342276 L 18.483013153076172 -3.34240436553955 L 18.43199920654297 -3.402953624725341 L 18.40476417541504 -3.4352798461914054 L 18.37574577331543 -3.4675235748291007 L 18.296764373779297 -3.5428476333618155 L 18.267745971679688 -3.5689113140106192 L 18.24768829345703 -3.58400011062622 L 18.188034057617188 -3.628878116607665 L 18.173254013061523 -3.6401634216308585 L 18.143966674804688 -3.6587035655975333 L 17.98381233215332 -3.743534564971923 L 17.954254150390625 -3.758044242858886 L 17.924697875976562 -3.769329547882079 L 17.804033279418945 -3.809551239013671 L 17.75969886779785 -3.8216426372528067 L 17.598079681396484 -3.8545513153076163 L 17.546220779418945 -3.863149642944335 L 17.408000946044922 -3.877534627914428 L 17.393529891967773 -3.8790404796600333 L 17.38460350036621 -3.879969596862792 L 17.263938903808594 -3.885819911956786 L 17.130395889282227 -3.89280605316162 L 16.883216857910156 -3.896462678909301 L 16.65139389038086 -3.8971939086914054 L 16.384000778198242 -3.8979218006134024 L 16.355287551879883 -3.8980000019073477 L 15.863853454589844 -3.8980000019073477 L 15.742457389831543 -3.8972687721252433 L 15.589568138122559 -3.894850492477416 L 15.468902587890625 -3.893387794494628 L 15.432093620300293 -3.892359495162963 L 15.359999656677246 -3.890345811843871 L 15.338000297546387 -3.8897314071655265 L 15.216604232788086 -3.8824183940887442 L 15.136160850524902 -3.8743739128112784 L 15.047221183776855 -3.8668503761291495 L 15.016179084777832 -3.8623757362365714 L 14.966047286987305 -3.855149507522582 L 14.891886711120605 -3.8390276432037345 L 14.730999946594238 -3.8010001182556143 L 14.621000289916992 -3.760999917984008 L 14.561033248901367 -3.734673023223876 L 14.516697883605957 -3.712371110916137 L 14.441914558410645 -3.6702206134796134 L 14.436254501342773 -3.6670305728912345 L 14.39603328704834 -3.6407036781311026 L 14.356542587280273 -3.6099889278411856 L 14.336000442504883 -3.5954954624176017 L 14.312745094299316 -3.5790886878967276 L 14.233033180236816 -3.508152246475219 L 14.203744888305664 -3.4804763793945304 L 14.125495910644531 -3.3927202224731436 L 14.096745491027832 -3.358595609664916 L 14.05798625946045 -3.3074045181274405 L 14.019227027893066 -3.251094102859496 L 13.991013526916504 -3.209714651107787 L 13.952985763549805 -3.1482853889465323 L 13.914958000183105 -3.0802743434905997 L 13.91037654876709 -3.07200002670288 L 13.887282371520996 -3.030296325683593 L 13.84998607635498 -2.955703496932983 L 13.786551475524902 -2.8148782253265376 L 13.752073287963867 -2.730441331863403 L 13.750717163085938 -2.727121829986572 L 13.715615272521973 -2.6313214302062984 L 13.689820289611816 -2.561191082000732 L 13.639360427856445 -2.40322995185852 L 13.621817588806152 -2.3470439910888667 L 13.620820045471191 -2.343847751617431 L 13.60926628112793 -2.300587177276611 L 13.545642852783203 -2.0651080608367915 L 13.541668891906738 -2.04800009727478 L 13.523609161376953 -1.9702576398849483 L 13.513399124145508 -1.9192049503326412 M 1.093000054359436 -13.618000030517575 L 0 -13.618000030517575 L -5.9070000648498535 -13.618000030517575 L -5.9070000648498535 -4.767000198364257 L -5.9070000648498535 1.1102230246251565e-16 L -5.9070000648498535 2.3819999694824214 L 0 2.3819999694824214 L 1.093000054359436 2.3819999694824214 L 1.093000054359436 1.1102230246251565e-16 L 1.093000054359436 -8.19200038909912 L 1.093000054359436 -12.28800010681152 L 1.093000054359436 -13.618000030517575 M -17.964000701904297 -13.618000030517575 L -17.964000701904297 -4.767000198364257 L -9.663999557495117 -4.767000198364257 L -9.663999557495117 -13.618000030517575 L -9.663999557495117 -16.38400077819824 L -9.663999557495117 -17.107000350952145 L -9.663999557495117 -20.767000198364254 L -16.384000778198242 -20.767000198364254 L -17.964000701904297 -20.767000198364254 L -17.964000701904297 -16.38400077819824 L -17.964000701904297 -13.618000030517575 M -9.663999557495117 20.479999542236325 L -9.663999557495117 16.38400077819824 L -9.663999557495117 5.563000202178954 L -16.384000778198242 5.563000202178954 L -17.964000701904297 5.563000202178954 L -17.964000701904297 11.88199996948242 L -17.964000701904297 16.38400077819824 L -17.964000701904297 18.881000518798825 L -17.964000701904297 21.5620002746582 L -16.384000778198242 21.5620002746582 L -12.288000106811523 21.5620002746582 L -10.239999771118164 21.5620002746582 L -9.727999687194824 21.5620002746582 L -9.663999557495117 21.5620002746582 L -9.663999557495117 21.503999710083004 L -9.663999557495117 20.479999542236325 M -2.427999973297119 -20.767000198364254 L -2.427999973297119 -27.200000762939446 L -6.927999973297119 -27.200000762939446 L -6.927999973297119 -20.767000198364254 L -6.927999973297119 -17.107000350952145 L -2.427999973297119 -17.107000350952145 L -2.427999973297119 -20.767000198364254 M 20.479999542236328 33.791999816894524 L 19.45599937438965 33.791999816894524 L 20.479999542236328 33.791999816894524 M 20.479999542236328 34.81600189208984 L 19.45599937438965 34.30400085449218 L 19.45599937438965 33.791999816894524 L 18.43199920654297 34.81600189208984 L 20.479999542236328 34.81600189208984 z" fill="none" stroke="rgb(255,0,0)" stroke-width="0.001mm" />
</svg>