<?xml version="1.0" standalone="no"?>
<!DOCTYPE svg PUBLIC "-//W3C//DTD SVG 1.1//EN"
  "http://www.w3.org/Graphics/SVG/1.1/DTD/svg11.dtd">
<svg width="117mm" height="78.8000030517578mm" viewBox="-58.5 -39.4000015258789 117 78.8000030517578" xmlns="http://www.w3.org/2000/svg" version="1.1">
	<title>svgOutput</title>
	<desc>made with tinkercad</desc>
<path d="M 57.5 38.4000015258789 L 32.768001556396484 38.4000015258789 L 0 38.4000015258789 L -32.768001556396484 38.4000015258789 L -57.5 38.4000015258789 L -57.5 36.22700119018554 L -57.5 33.82699966430663 L -57.5 32.76800155639648 L -57.5 24.57600021362304 L -57.5 16.38400077819824 L -57.5 1.1102230246251565e-16 L -57.5 -4.699999809265136 L -57.5 -16.38400077819824 L -57.5 -24.57600021362304 L -57.5 -32.76800155639648 L -57.5 -36.99000167846679 L -57.5 -38.4000015258789 L -32.768001556396484 -38.4000015258789 L -23.474000930786133 -38.4000015258789 L 0 -38.4000015258789 L 22.472000122070312 -38.4000015258789 L 32.768001556396484 -38.4000015258789 L 57.5 -38.4000015258789 L 57.5 -36.99000167846679 L 57.5 -32.76800155639648 L 57.5 -24.57600021362304 L 57.5 -16.38400077819824 L 57.5 -15.939999580383297 L 57.5 1.1102230246251565e-16 L 57.5 16.38400077819824 L 57.5 24.57600021362304 L 57.5 32.76800155639648 L 57.5 36.22700119018554 L 57.5 38.4000015258789 M -14.4913330078125 -21.800333023071286 L -14.59766674041748 -21.800333023071286 L -14.680108070373535 -21.799301147460934 L -14.784000396728516 -21.798000335693356 L -15.095999717712402 -21.7859992980957 L -15.095999717712402 -20.479999542236325 L -15.095999717712402 -16.38400077819824 L -15.095999717712402 -8.19200038909912 L -15.095999717712402 -0.805000007152557 L -13.503999710083008 -0.805000007152557 L -13.503999710083008 -8.19200038909912 L -13.503999710083008 -16.38400077819824 L -13.503999710083008 -20.479999542236325 L -13.503999710083008 -21.805000305175778 L -13.637999534606934 -21.805000305175778 L -14.4913330078125 -21.800333023071286 M -17.485332489013672 -18.304000854492184 L -17.48699951171875 -18.214000701904293 L -17.488000869750977 -17.913999557495114 L -17.488000869750977 -16.38400077819824 L -17.488000869750977 -0.805000007152557 L -16.384000778198242 -0.805000007152557 L -15.996000289916992 -0.805000007152557 L -15.996000289916992 -8.19200038909912 L -15.996000289916992 -16.38400077819824 L -15.996000289916992 -20.479999542236325 L -15.996000289916992 -21.648000717163082 L -16.048999786376953 -21.632999420166012 L -16.20199966430664 -21.579000473022457 L -16.350000381469727 -21.51399993896484 L -16.384000778198242 -21.495582580566403 L -16.493999481201172 -21.436000823974606 L -16.631000518798828 -21.343999862670895 L -16.760000228881836 -21.238000869750973 L -16.878999710083008 -21.11700057983398 L -16.986000061035156 -20.983999252319332 L -17.079999923706055 -20.837999343872067 L -17.160999298095703 -20.68300056457519 L -17.231000900268555 -20.520999908447262 L -17.244911193847656 -20.479999542236325 L -17.288000106811523 -20.353000640869137 L -17.336000442504883 -20.18099975585937 L -17.374000549316406 -20.00699996948242 L -17.402666091918945 -19.82966613769531 L -17.42099952697754 -19.71133422851562 L -17.44099998474121 -19.532667160034176 L -17.4516658782959 -19.413333892822262 L -17.464332580566406 -19.233999252319332 L -17.470666885375977 -19.08399963378906 L -17.47109031677246 -19.073091506958004 L -17.479999542236328 -18.843999862670895 L -17.485332489013672 -18.304000854492184 M -50.582000732421875 0.10100000351667413 L -50.582000732421875 1.1102230246251565e-16 L -50.582000732421875 -4.699999809265136 L -54.082000732421875 -4.699999809265136 L -54.082000732421875 1.1102230246251565e-16 L -54.082000732421875 0.10100000351667413 L -56.27799987792969 0.10100000351667413 L -56.27799987792969 16.38400077819824 L -56.27799987792969 20.600999832153317 L -54.082000732421875 20.600999832153317 L -54.082000732421875 24.57600021362304 L -54.082000732421875 26.79999923706054 L -50.67667007446289 26.79999923706054 L -50.582000732421875 26.79999923706054 L -50.582000732421875 26.68470382690429 L -50.582000732421875 24.57600021362304 L -50.582000732421875 16.38400077819824 L -50.582000732421875 0.10100000351667413 M 48.5629997253418 -33.08200073242187 L 48.30609130859375 -32.76800155639648 L 48.284000396728516 -32.74100112915038 L 48.07600021362305 -32.35200119018554 L 47.948001861572266 -31.930000305175774 L 47.90399932861328 -31.49099922180175 L 47.948001861572266 -31.05200004577636 L 48.07600021362305 -30.629999160766594 L 48.284000396728516 -30.24099922180175 L 48.5629997253418 -29.899999618530266 L 48.90399932861328 -29.62000083923339 L 49.152000427246094 -29.487392425537102 L 49.292999267578125 -29.412000656127923 L 49.71500015258789 -29.28400039672851 L 50.15399932861328 -29.24099922180175 L 50.59299850463867 -29.28400039672851 L 51.01499938964844 -29.412000656127923 L 51.40399932861328 -29.62000083923339 L 51.744998931884766 -29.899999618530266 L 52.025001525878906 -30.24099922180175 L 52.233001708984375 -30.629999160766594 L 52.361000061035156 -31.05200004577636 L 52.40399932861328 -31.49099922180175 L 52.361000061035156 -31.930000305175774 L 52.233001708984375 -32.35200119018554 L 52.025001525878906 -32.74100112915038 L 52.002830505371094 -32.76800155639648 L 51.744998931884766 -33.08200073242187 L 51.40399932861328 -33.36199951171874 L 51.01499938964844 -33.56999969482421 L 50.59299850463867 -33.69800186157226 L 50.15399932861328 -33.74100112915038 L 49.71500015258789 -33.69800186157226 L 49.292999267578125 -33.56999969482421 L 48.90399932861328 -33.36199951171874 L 48.5629997253418 -33.08200073242187 M 44.47200012207031 -34.59000015258788 L 44.47200012207031 -35.554607391357415 L 44.47200012207031 -36.99000167846679 L 39.739688873291016 -36.99000167846679 L 32.768001556396484 -36.99000167846679 L 22.472000122070312 -36.99000167846679 L 22.472000122070312 -34.59000015258788 L 32.768001556396484 -34.59000015258788 L 41.48630142211914 -34.59000015258788 L 44.47200012207031 -34.59000015258788 M 34.82600021362305 -12.850000381469723 L 34.770263671875 -12.28800010681152 L 34.76599884033203 -12.244999885559078 L 34.82600021362305 -11.640000343322752 L 35.00199890136719 -11.059000015258787 L 35.28900146484375 -10.522999763488768 L 35.67399978637695 -10.053000450134276 L 36.14400100708008 -9.66699981689453 L 36.68000030517578 -9.38099956512451 L 36.86399841308594 -9.325357437133787 L 37.262001037597656 -9.204999923706053 L 37.86600112915039 -9.14500045776367 L 38.47100067138672 -9.204999923706053 L 39.053001403808594 -9.38099956512451 L 39.5890007019043 -9.66699981689453 L 40.05799865722656 -10.053000450134276 L 40.444000244140625 -10.522999763488768 L 40.72999954223633 -11.059000015258787 L 40.90700149536133 -11.640000343322752 L 40.959999084472656 -12.183474540710446 L 40.965999603271484 -12.244999885559078 L 40.959999084472656 -12.306525230407711 L 40.90700149536133 -12.850000381469723 L 40.72999954223633 -13.430999755859371 L 40.444000244140625 -13.967000007629391 L 40.05799865722656 -14.4370002746582 L 39.5890007019043 -14.82299995422363 L 39.053001403808594 -15.109000205993649 L 38.47100067138672 -15.284999847412106 L 37.86600112915039 -15.345000267028805 L 37.262001037597656 -15.284999847412106 L 36.68000030517578 -15.109000205993649 L 36.14400100708008 -14.82299995422363 L 35.67399978637695 -14.4370002746582 L 35.28900146484375 -13.967000007629391 L 35.00199890136719 -13.430999755859371 L 34.82600021362305 -12.850000381469723 M 35.00199890136719 -1.1180000305175777 L 34.82600021362305 -0.5370000004768369 L 34.772743225097656 1.1102230246251565e-16 L 34.76599884033203 0.06800000369548807 L 34.82600021362305 0.6729999780654907 L 35.00199890136719 1.2549999952316284 L 35.28900146484375 1.7910000085830684 L 35.67399978637695 2.2599999904632564 L 36.14400100708008 2.645999908447265 L 36.68000030517578 2.9319999217987056 L 36.86399841308594 2.987958669662475 L 37.262001037597656 3.1089999675750724 L 37.86600112915039 3.1679999828338614 L 38.47100067138672 3.1089999675750724 L 39.053001403808594 2.9319999217987056 L 39.5890007019043 2.645999908447265 L 40.05799865722656 2.2599999904632564 L 40.444000244140625 1.7910000085830684 L 40.72999954223633 1.2549999952316284 L 40.90700149536133 0.6729999780654907 L 40.959999084472656 0.12952542304992684 L 40.965999603271484 0.06800000369548807 L 40.959999084472656 0.006474576424807419 L 40.95936965942383 1.1102230246251565e-16 L 40.90700149536133 -0.5370000004768369 L 40.72999954223633 -1.1180000305175777 L 40.444000244140625 -1.654000043869018 L 40.05799865722656 -2.1240000724792476 L 39.5890007019043 -2.5090000629425044 L 39.053001403808594 -2.796000003814697 L 38.47100067138672 -2.971999883651733 L 37.86600112915039 -3.0320000648498526 L 37.262001037597656 -2.971999883651733 L 36.68000030517578 -2.796000003814697 L 36.14400100708008 -2.5090000629425044 L 35.67399978637695 -2.1240000724792476 L 35.28900146484375 -1.654000043869018 L 35.00199890136719 -1.1180000305175777 M 20.51799964904785 -21.436000823974606 L 20.479999542236328 -21.456583023071286 L 20.374000549316406 -21.51399993896484 L 20.225000381469727 -21.579000473022457 L 20.072999954223633 -21.632999420166012 L 19.917999267578125 -21.67600059509277 L 19.784000396728516 -21.705999374389645 L 19.784000396728516 -20.479999542236325 L 19.784000396728516 -16.38400077819824 L 19.784000396728516 -8.19200038909912 L 19.784000396728516 -0.805000007152557 L 21.511999130249023 -0.805000007152557 L 21.511999130249023 -8.19200038909912 L 21.511999130249023 -16.38400077819824 L 21.511999130249023 -16.68533325195312 L 21.511333465576172 -17.95899963378906 L 21.510665893554688 -18.22900009155273 L 21.506000518798828 -18.679000854492184 L 21.503999710083008 -18.843999862670895 L 21.48900032043457 -19.204000473022457 L 21.479665756225586 -19.32333374023437 L 21.454999923706055 -19.621999740600582 L 21.41900062561035 -19.858667373657223 L 21.408000946044922 -19.94799995422363 L 21.398000717163086 -20.00699996948242 L 21.39313507080078 -20.028705596923825 L 21.358999252319336 -20.18099975585937 L 21.312000274658203 -20.353000640869137 L 21.26815414428711 -20.479999542236325 L 21.253999710083008 -20.520999908447262 L 21.184999465942383 -20.68300056457519 L 21.10300064086914 -20.837999343872067 L 21.009000778198242 -20.983999252319332 L 20.902000427246094 -21.11700057983398 L 20.784000396728516 -21.238000869750973 L 20.655000686645508 -21.343999862670895 L 20.51799964904785 -21.436000823974606 M 18.488332748413086 -21.80366706848144 L 17.669666290283203 -21.805000305175778 L 17.34000015258789 -21.805000305175778 L 17.34000015258789 -20.479999542236325 L 17.34000015258789 -16.38400077819824 L 17.34000015258789 -8.19200038909912 L 17.34000015258789 -0.805000007152557 L 18.884000778198242 -0.805000007152557 L 18.884000778198242 -8.19200038909912 L 18.884000778198242 -16.38400077819824 L 18.884000778198242 -20.479999542236325 L 18.884000778198242 -21.795999526977536 L 18.6733341217041 -21.800666809082028 L 18.488332748413086 -21.80366706848144 M 26.344999313354492 -13.812999725341793 L 26.052000045776367 -13.842000007629391 L 25.759000778198242 -13.812999725341793 L 25.47800064086914 -13.72799968719482 L 25.2189998626709 -13.588999748229977 L 24.990999221801758 -13.402999877929684 L 24.80500030517578 -13.17500019073486 L 24.666000366210938 -12.916000366210934 L 24.58099937438965 -12.633999824523922 L 24.576000213623047 -12.583655357360836 L 24.552000045776367 -12.342000007629391 L 24.576000213623047 -12.099516868591305 L 24.58099937438965 -12.04899978637695 L 24.666000366210938 -11.76799964904785 L 24.80500030517578 -11.50800037384033 L 24.990999221801758 -11.2810001373291 L 25.2189998626709 -11.095000267028807 L 25.47800064086914 -10.956000328063963 L 25.759000778198242 -10.87100028991699 L 26.052000045776367 -10.842000007629393 L 26.344999313354492 -10.87100028991699 L 26.625999450683594 -10.956000328063963 L 26.885000228881836 -11.095000267028807 L 27.113000869750977 -11.2810001373291 L 27.298999786376953 -11.50800037384033 L 27.437999725341797 -11.76799964904785 L 27.523000717163086 -12.04899978637695 L 27.546655654907227 -12.28800010681152 L 27.552000045776367 -12.342000007629391 L 27.523000717163086 -12.633999824523922 L 27.437999725341797 -12.916000366210934 L 27.298999786376953 -13.17500019073486 L 27.113000869750977 -13.402999877929684 L 26.885000228881836 -13.588999748229977 L 26.625999450683594 -13.72799968719482 L 26.624000549316406 -13.728605270385739 L 26.344999313354492 -13.812999725341793 M 26.885000228881836 -1.4249999523162837 L 26.625999450683594 -1.564000010490417 L 26.624000549316406 -1.5646049976348873 L 26.344999313354492 -1.6490000486373897 L 26.052000045776367 -1.6779999732971187 L 25.759000778198242 -1.6490000486373897 L 25.47800064086914 -1.564000010490417 L 25.2189998626709 -1.4249999523162837 L 24.990999221801758 -1.2389999628067012 L 24.80500030517578 -1.0119999647140498 L 24.666000366210938 -0.7519999742507931 L 24.58099937438965 -0.4709999859333036 L 24.576000213623047 -0.4204827547073362 L 24.552000045776367 -0.1780000030994414 L 24.569677352905273 1.1102230246251565e-16 L 24.576000213623047 0.06365517526865015 L 24.58099937438965 0.11400000005960473 L 24.666000366210938 0.3959999978542328 L 24.80500030517578 0.6549999713897705 L 24.990999221801758 0.8820000290870665 L 25.2189998626709 1.069000005722046 L 25.47800064086914 1.2079999446868896 L 25.759000778198242 1.2929999828338623 L 26.052000045776367 1.3220000267028809 L 26.344999313354492 1.2929999828338623 L 26.625999450683594 1.2079999446868896 L 26.885000228881836 1.069000005722046 L 27.113000869750977 0.8820000290870665 L 27.298999786376953 0.6549999713897705 L 27.437999725341797 0.3959999978542328 L 27.523000717163086 0.11400000005960473 L 27.53432273864746 1.1102230246251565e-16 L 27.552000045776367 -0.1780000030994414 L 27.523000717163086 -0.4709999859333036 L 27.437999725341797 -0.7519999742507931 L 27.298999786376953 -1.0119999647140498 L 27.113000869750977 -1.2389999628067012 L 26.885000228881836 -1.4249999523162837 M 37.262001037597656 9.064000129699705 L 36.86399841308594 9.185041427612303 L 36.68000030517578 9.241000175476072 L 36.14400100708008 9.527000427246092 L 35.67399978637695 9.913000106811522 L 35.28900146484375 10.38199996948242 L 35.00199890136719 10.91800022125244 L 34.82600021362305 11.499999999999998 L 34.76599884033203 12.104999542236325 L 34.7841796875 12.28800010681152 L 34.82600021362305 12.708999633789059 L 35.00199890136719 13.291000366210934 L 35.28900146484375 13.826999664306637 L 35.67399978637695 14.296999931335446 L 36.14400100708008 14.682000160217282 L 36.68000030517578 14.968999862670895 L 37.262001037597656 15.145000457763668 L 37.86600112915039 15.204999923706051 L 38.47100067138672 15.145000457763668 L 39.053001403808594 14.968999862670895 L 39.5890007019043 14.682000160217282 L 40.05799865722656 14.296999931335446 L 40.444000244140625 13.826999664306637 L 40.72999954223633 13.291000366210934 L 40.90700149536133 12.708999633789059 L 40.948123931884766 12.28800010681152 L 40.959999084472656 12.166423797607418 L 40.965999603271484 12.104999542236325 L 40.959999084472656 12.043474197387692 L 40.90700149536133 11.499999999999998 L 40.72999954223633 10.91800022125244 L 40.444000244140625 10.38199996948242 L 40.05799865722656 9.913000106811522 L 39.5890007019043 9.527000427246092 L 39.053001403808594 9.241000175476072 L 38.47100067138672 9.064000129699705 L 37.86600112915039 9.005000114440916 L 37.262001037597656 9.064000129699705 M 49.71500015258789 27.753000259399407 L 49.292999267578125 27.88100051879882 L 49.152000427246094 27.956394195556634 L 48.90399932861328 28.08900070190429 L 48.5629997253418 28.368999481201165 L 48.284000396728516 28.70999908447265 L 48.07600021362305 29.099000930786126 L 47.948001861572266 29.52099990844726 L 47.90399932861328 29.95999908447265 L 47.948001861572266 30.399000167846673 L 48.07600021362305 30.820999145507805 L 48.284000396728516 31.20999908447265 L 48.5629997253418 31.551000595092766 L 48.90399932861328 31.83099937438964 L 49.152000427246094 31.963605880737298 L 49.292999267578125 32.03900146484374 L 49.71500015258789 32.166999816894524 L 50.15399932861328 32.20999908447265 L 50.59299850463867 32.166999816894524 L 51.01499938964844 32.03900146484374 L 51.40399932861328 31.83099937438964 L 51.744998931884766 31.551000595092766 L 52.025001525878906 31.20999908447265 L 52.233001708984375 30.820999145507805 L 52.361000061035156 30.399000167846673 L 52.40399932861328 29.95999908447265 L 52.361000061035156 29.52099990844726 L 52.233001708984375 29.099000930786126 L 52.025001525878906 28.70999908447265 L 51.993797302246094 28.67200088500976 L 51.744998931884766 28.368999481201165 L 51.40399932861328 28.08900070190429 L 51.01499938964844 27.88100051879882 L 50.59299850463867 27.753000259399407 L 50.15399932861328 27.70999908447265 L 49.71500015258789 27.753000259399407 M 26.625999450683594 10.718999862670897 L 26.624000549316406 10.718395233154295 L 26.344999313354492 10.633999824523924 L 26.052000045776367 10.604999542236326 L 25.759000778198242 10.633999824523924 L 25.47800064086914 10.718999862670897 L 25.2189998626709 10.857000350952147 L 24.990999221801758 11.043999671936033 L 24.80500030517578 11.270999908447264 L 24.666000366210938 11.5310001373291 L 24.58099937438965 11.812000274658201 L 24.576000213623047 11.862517356872557 L 24.552000045776367 12.104999542236325 L 24.576000213623047 12.34665489196777 L 24.58099937438965 12.397000312805172 L 24.666000366210938 12.678999900817868 L 24.80500030517578 12.937999725341793 L 24.990999221801758 13.164999961853024 L 25.2189998626709 13.352000236511227 L 25.47800064086914 13.48999977111816 L 25.759000778198242 13.576000213623043 L 26.052000045776367 13.604999542236325 L 26.344999313354492 13.576000213623043 L 26.625999450683594 13.48999977111816 L 26.885000228881836 13.352000236511227 L 27.113000869750977 13.164999961853024 L 27.298999786376953 12.937999725341793 L 27.437999725341797 12.678999900817868 L 27.523000717163086 12.397000312805172 L 27.533824920654297 12.28800010681152 L 27.552000045776367 12.104999542236325 L 27.523000717163086 11.812000274658201 L 27.437999725341797 11.5310001373291 L 27.298999786376953 11.270999908447264 L 27.113000869750977 11.043999671936033 L 26.885000228881836 10.857000350952147 L 26.625999450683594 10.718999862670897 M 21.511999130249023 18.364000320434567 L 21.511999130249023 16.38400077819824 L 21.511999130249023 8.19200038909912 L 21.511999130249023 1.1950000524520874 L 19.784000396728516 1.1950000524520874 L 19.784000396728516 8.19200038909912 L 19.784000396728516 16.38400077819824 L 19.784000396728516 20.479999542236325 L 19.784000396728516 22.096000671386715 L 19.917999267578125 22.065999984741207 L 20.072999954223633 22.023000717163082 L 20.225000381469727 21.968999862670895 L 20.374000549316406 21.903999328613278 L 20.479999542236328 21.846582412719723 L 20.51799964904785 21.826000213623043 L 20.655000686645508 21.733999252319332 L 20.784000396728516 21.62800025939941 L 20.902000427246094 21.50699996948242 L 21.009000778198242 21.374000549316403 L 21.10300064086914 21.228000640869137 L 21.184999465942383 21.073999404907223 L 21.253999710083008 20.9109992980957 L 21.312000274658203 20.743000030517575 L 21.358999252319336 20.57099914550781 L 21.379396438598633 20.479999542236325 L 21.388269424438477 20.4404125213623 L 21.398000717163086 20.396999359130856 L 21.417999267578125 20.278999328613278 L 21.440000534057617 20.100334167480465 L 21.45800018310547 19.982000350952145 L 21.468666076660156 19.86266708374023 L 21.488666534423828 19.593999862670895 L 21.494333267211914 19.47400093078613 L 21.50433349609375 19.204000473022457 L 21.507333755493164 19.054000854492184 L 21.511333465576172 18.544000625610348 L 21.511999130249023 18.364000320434567 M 18.500667572021484 22.19133377075195 L 18.884000778198242 22.186000823974606 L 18.884000778198242 20.479999542236325 L 18.884000778198242 16.38400077819824 L 18.884000778198242 8.19200038909912 L 18.884000778198242 1.1950000524520874 L 17.34000015258789 1.1950000524520874 L 17.34000015258789 8.19200038909912 L 17.34000015258789 16.38400077819824 L 17.34000015258789 20.479999542236325 L 17.34000015258789 22.194999694824215 L 17.64299964904785 22.194999694824215 L 18.284725189208984 22.19433784484863 L 18.288999557495117 22.194334030151364 L 18.500667572021484 22.19133377075195 M -41.706302642822266 -34.59000015258788 L -32.768001556396484 -34.59000015258788 L -23.474000930786133 -34.59000015258788 L -23.474000930786133 -36.99000167846679 L -32.768001556396484 -36.99000167846679 L -39.959686279296875 -36.99000167846679 L -42.4739990234375 -36.99000167846679 L -42.4739990234375 -36.227363586425774 L -42.4739990234375 -34.59000015258788 L -41.706302642822266 -34.59000015258788 M -51.96500015258789 -33.08200073242187 L -52.22283172607422 -32.76800155639648 L -52.244998931884766 -32.74100112915038 L -52.452999114990234 -32.35200119018554 L -52.58100128173828 -31.930000305175774 L -52.624000549316406 -31.49099922180175 L -52.58100128173828 -31.05200004577636 L -52.452999114990234 -30.629999160766594 L -52.244998931884766 -30.24099922180175 L -51.96500015258789 -29.899999618530266 L -51.624000549316406 -29.62000083923339 L -51.23500061035156 -29.412000656127923 L -50.8129997253418 -29.28400039672851 L -50.374000549316406 -29.24099922180175 L -49.935001373291016 -29.28400039672851 L -49.51300048828125 -29.412000656127923 L -49.152000427246094 -29.605028152465813 L -49.124000549316406 -29.62000083923339 L -48.78300094604492 -29.899999618530266 L -48.50400161743164 -30.24099922180175 L -48.29600143432617 -30.629999160766594 L -48.167999267578125 -31.05200004577636 L -48.124000549316406 -31.49099922180175 L -48.167999267578125 -31.930000305175774 L -48.29600143432617 -32.35200119018554 L -48.50400161743164 -32.74100112915038 L -48.526092529296875 -32.76800155639648 L -48.78300094604492 -33.08200073242187 L -49.124000549316406 -33.36199951171874 L -49.51300048828125 -33.56999969482421 L -49.935001373291016 -33.69800186157226 L -50.374000549316406 -33.74100112915038 L -50.8129997253418 -33.69800186157226 L -51.23500061035156 -33.56999969482421 L -51.624000549316406 -33.36199951171874 L -51.96500015258789 -33.08200073242187 M -53.7400016784668 -16.61899948120117 L -53.7400016784668 -24.57600021362304 L -53.7400016784668 -25.618999481201165 L -56.13999938964844 -25.618999481201165 L -56.13999938964844 -24.57600021362304 L -56.13999938964844 -16.61899948120117 L -53.7400016784668 -16.61899948120117 M -17.485332489013672 7.208000183105467 L -17.481264114379883 16.38400077819824 L -17.479999542236328 19.233999252319332 L -17.470666885375977 19.47400093078613 L -17.464332580566406 19.624000549316403 L -17.445667266845703 19.86266708374023 L -17.434999465942383 19.982000350952145 L -17.41666603088379 20.100334167480465 L -17.39466667175293 20.278999328613278 L -17.374000549316406 20.396999359130856 L -17.36265754699707 20.448934555053707 L -17.355873107910156 20.479999542236325 L -17.336000442504883 20.57099914550781 L -17.288000106811523 20.743000030517575 L -17.231000900268555 20.9109992980957 L -17.160999298095703 21.073999404907223 L -17.079999923706055 21.228000640869137 L -16.986000061035156 21.374000549316403 L -16.878999710083008 21.50699996948242 L -16.760000228881836 21.62800025939941 L -16.631000518798828 21.733999252319332 L -16.493999481201172 21.826000213623043 L -16.384000778198242 21.885583877563473 L -16.350000381469727 21.903999328613278 L -16.20199966430664 21.968999862670895 L -16.048999786376953 22.023000717163082 L -15.996000289916992 22.03800010681152 L -15.996000289916992 20.479999542236325 L -15.996000289916992 16.38400077819824 L -15.996000289916992 8.19200038909912 L -15.996000289916992 1.1950000524520874 L -16.384000778198242 1.1950000524520874 L -17.488000869750977 1.1950000524520874 L -17.488000869750977 6.998000144958494 L -17.485332489013672 7.208000183105467 M -8.567999839782715 20.479999542236325 L -8.567999839782715 16.38400077819824 L -8.567999839782715 8.19200038909912 L -8.567999839782715 1.1950000524520874 L -10.15999984741211 1.1950000524520874 L -10.15999984741211 8.19200038909912 L -10.15999984741211 16.38400077819824 L -10.15999984741211 20.479999542236325 L -10.15999984741211 22.194999694824215 L -8.567999839782715 22.194999694824215 L -8.567999839782715 20.479999542236325 M -14.624666213989258 22.19133377075195 L -14.385333061218262 22.19366645812988 L -13.691333770751953 22.194999694824215 L -13.503999710083008 22.194999694824215 L -13.503999710083008 20.479999542236325 L -13.503999710083008 16.38400077819824 L -13.503999710083008 8.19200038909912 L -13.503999710083008 1.1950000524520874 L -15.095999717712402 1.1950000524520874 L -15.095999717712402 8.19200038909912 L -15.095999717712402 16.38400077819824 L -15.095999717712402 20.479999542236325 L -15.095999717712402 22.17600059509277 L -14.784000396728516 22.187999725341793 L -14.624666213989258 22.19133377075195 M -49.51300048828125 32.03900146484374 L -49.152000427246094 31.84597206115722 L -49.124000549316406 31.83099937438964 L -48.78300094604492 31.551000595092766 L -48.50400161743164 31.20999908447265 L -48.29600143432617 30.820999145507805 L -48.167999267578125 30.399000167846673 L -48.124000549316406 29.95999908447265 L -48.167999267578125 29.52099990844726 L -48.29600143432617 29.099000930786126 L -48.50400161743164 28.70999908447265 L -48.78300094604492 28.368999481201165 L -49.124000549316406 28.08900070190429 L -49.152000427246094 28.07402801513671 L -49.51300048828125 27.88100051879882 L -49.935001373291016 27.753000259399407 L -50.374000549316406 27.70999908447265 L -50.8129997253418 27.753000259399407 L -51.23500061035156 27.88100051879882 L -51.624000549316406 28.08900070190429 L -51.96500015258789 28.368999481201165 L -52.21379852294922 28.67200088500976 L -52.244998931884766 28.70999908447265 L -52.452999114990234 29.099000930786126 L -52.58100128173828 29.52099990844726 L -52.624000549316406 29.95999908447265 L -52.58100128173828 30.399000167846673 L -52.452999114990234 30.820999145507805 L -52.244998931884766 31.20999908447265 L -51.96500015258789 31.551000595092766 L -51.624000549316406 31.83099937438964 L -51.23500061035156 32.03900146484374 L -50.8129997253418 32.166999816894524 L -50.374000549316406 32.20999908447265 L -49.935001373291016 32.166999816894524 L -49.51300048828125 32.03900146484374 M 53.41999816894531 -24.94000053405761 L 53.41999816894531 -24.57600021362304 L 53.41999816894531 -16.38400077819824 L 53.41999816894531 -15.939999580383297 L 55.81999969482422 -15.939999580383297 L 55.81999969482422 -16.38400077819824 L 55.81999969482422 -24.57600021362304 L 55.81999969482422 -24.94000053405761 L 53.41999816894531 -24.94000053405761 M 16.440000534057617 -21.805000305175778 L 16.384000778198242 -21.805000305175778 L 14.847999572753906 -21.805000305175778 L 14.847999572753906 -16.38400077819824 L 14.847999572753906 -8.19200038909912 L 14.847999572753906 -0.805000007152557 L 16.384000778198242 -0.805000007152557 L 16.440000534057617 -0.805000007152557 L 16.440000534057617 -8.19200038909912 L 16.440000534057617 -16.38400077819824 L 16.440000534057617 -20.479999542236325 L 16.440000534057617 -21.805000305175778 M 13.947999954223633 -16.38400077819824 L 13.947999954223633 -21.805000305175778 L 12.355999946594238 -21.805000305175778 L 12.355999946594238 -16.38400077819824 L 12.355999946594238 -8.19200038909912 L 12.355999946594238 -0.805000007152557 L 13.947999954223633 -0.805000007152557 L 13.947999954223633 -8.19200038909912 L 13.947999954223633 -16.38400077819824 M 11.456000328063965 -16.38400077819824 L 11.456000328063965 -21.805000305175778 L 9.86400032043457 -21.805000305175778 L 9.86400032043457 -16.38400077819824 L 9.86400032043457 -8.19200038909912 L 9.86400032043457 -0.805000007152557 L 11.456000328063965 -0.805000007152557 L 11.456000328063965 -8.19200038909912 L 11.456000328063965 -16.38400077819824 M 8.96399974822998 -16.38400077819824 L 8.96399974822998 -21.805000305175778 L 8.192000389099121 -21.805000305175778 L 7.420000076293945 -21.805000305175778 L 7.420000076293945 -16.38400077819824 L 7.420000076293945 -8.19200038909912 L 7.420000076293945 -0.805000007152557 L 8.192000389099121 -0.805000007152557 L 8.96399974822998 -0.805000007152557 L 8.96399974822998 -8.19200038909912 L 8.96399974822998 -16.38400077819824 M 6.519999980926514 -16.38400077819824 L 6.519999980926514 -21.805000305175778 L 4.927999973297119 -21.805000305175778 L 4.927999973297119 -16.38400077819824 L 4.927999973297119 -8.19200038909912 L 4.927999973297119 -0.805000007152557 L 6.519999980926514 -0.805000007152557 L 6.519999980926514 -8.19200038909912 L 6.519999980926514 -16.38400077819824 M 4.0279998779296875 -16.38400077819824 L 4.0279998779296875 -21.805000305175778 L 2.3320000171661377 -21.805000305175778 L 2.3320000171661377 -16.38400077819824 L 2.3320000171661377 -8.19200038909912 L 2.3320000171661377 -0.805000007152557 L 4.0279998779296875 -0.805000007152557 L 4.0279998779296875 -8.19200038909912 L 4.0279998779296875 -16.38400077819824 M 1.4320000410079956 -21.805000305175778 L 0 -21.805000305175778 L -0.1599999964237213 -21.805000305175778 L -0.1599999964237213 -16.38400077819824 L -0.1599999964237213 -8.19200038909912 L -0.1599999964237213 -0.805000007152557 L 0 -0.805000007152557 L 1.4320000410079956 -0.805000007152557 L 1.4320000410079956 -8.19200038909912 L 1.4320000410079956 -16.38400077819824 L 1.4320000410079956 -21.805000305175778 M 53.41999816894531 0.28000000119209295 L 53.41999816894531 16.38400077819824 L 53.41999816894531 21.280000686645504 L 55.81999969482422 21.280000686645504 L 55.81999969482422 16.38400077819824 L 55.81999969482422 0.28000000119209295 L 53.41999816894531 0.28000000119209295 M 44.47200012207031 33.82699966430663 L 32.768001556396484 33.82699966430663 L 22.472000122070312 33.82699966430663 L 22.472000122070312 36.22700119018554 L 32.768001556396484 36.22700119018554 L 44.47200012207031 36.22700119018554 L 44.47200012207031 33.82699966430663 M 16.440000534057617 8.19200038909912 L 16.440000534057617 1.1950000524520874 L 16.384000778198242 1.1950000524520874 L 14.847999572753906 1.1950000524520874 L 14.847999572753906 8.19200038909912 L 14.847999572753906 16.38400077819824 L 14.847999572753906 22.194999694824215 L 16.384000778198242 22.194999694824215 L 16.440000534057617 22.194999694824215 L 16.440000534057617 20.479999542236325 L 16.440000534057617 16.38400077819824 L 16.440000534057617 8.19200038909912 M 13.947999954223633 8.19200038909912 L 13.947999954223633 1.1950000524520874 L 12.355999946594238 1.1950000524520874 L 12.355999946594238 8.19200038909912 L 12.355999946594238 16.38400077819824 L 12.355999946594238 22.194999694824215 L 13.947999954223633 22.194999694824215 L 13.947999954223633 16.38400077819824 L 13.947999954223633 8.19200038909912 M 11.456000328063965 8.19200038909912 L 11.456000328063965 1.1950000524520874 L 9.86400032043457 1.1950000524520874 L 9.86400032043457 8.19200038909912 L 9.86400032043457 16.38400077819824 L 9.86400032043457 22.194999694824215 L 11.456000328063965 22.194999694824215 L 11.456000328063965 16.38400077819824 L 11.456000328063965 8.19200038909912 M 8.96399974822998 8.19200038909912 L 8.96399974822998 1.1950000524520874 L 8.192000389099121 1.1950000524520874 L 7.420000076293945 1.1950000524520874 L 7.420000076293945 8.19200038909912 L 7.420000076293945 16.38400077819824 L 7.420000076293945 22.194999694824215 L 8.192000389099121 22.194999694824215 L 8.96399974822998 22.194999694824215 L 8.96399974822998 16.38400077819824 L 8.96399974822998 8.19200038909912 M 4.0279998779296875 8.19200038909912 L 4.0279998779296875 1.1950000524520874 L 2.3320000171661377 1.1950000524520874 L 2.3320000171661377 8.19200038909912 L 2.3320000171661377 16.38400077819824 L 2.3320000171661377 22.194999694824215 L 4.0279998779296875 22.194999694824215 L 4.0279998779296875 16.38400077819824 L 4.0279998779296875 8.19200038909912 M 4.927999973297119 8.19200038909912 L 4.927999973297119 16.38400077819824 L 4.927999973297119 22.194999694824215 L 6.519999980926514 22.194999694824215 L 6.519999980926514 16.38400077819824 L 6.519999980926514 8.19200038909912 L 6.519999980926514 1.1950000524520874 L 4.927999973297119 1.1950000524520874 L 4.927999973297119 8.19200038909912 M 1.4320000410079956 1.1950000524520874 L 0 1.1950000524520874 L -0.1599999964237213 1.1950000524520874 L -0.1599999964237213 8.19200038909912 L -0.1599999964237213 16.38400077819824 L -0.1599999964237213 22.194999694824215 L 0 22.194999694824215 L 1.4320000410079956 22.194999694824215 L 1.4320000410079956 16.38400077819824 L 1.4320000410079956 8.19200038909912 L 1.4320000410079956 1.1950000524520874 M -1.059999942779541 -16.38400077819824 L -1.059999942779541 -21.805000305175778 L -2.6040000915527344 -21.805000305175778 L -2.6040000915527344 -16.38400077819824 L -2.6040000915527344 -8.19200038909912 L -2.6040000915527344 -0.805000007152557 L -1.059999942779541 -0.805000007152557 L -1.059999942779541 -8.19200038909912 L -1.059999942779541 -16.38400077819824 M -3.503999948501587 -16.38400077819824 L -3.503999948501587 -21.805000305175778 L -5.0960001945495605 -21.805000305175778 L -5.0960001945495605 -16.38400077819824 L -5.0960001945495605 -8.19200038909912 L -5.0960001945495605 -0.805000007152557 L -3.503999948501587 -0.805000007152557 L -3.503999948501587 -8.19200038909912 L -3.503999948501587 -16.38400077819824 M -5.995999813079834 -16.38400077819824 L -5.995999813079834 -21.805000305175778 L -7.668000221252441 -21.805000305175778 L -7.668000221252441 -16.38400077819824 L -7.668000221252441 -8.19200038909912 L -7.668000221252441 -0.805000007152557 L -5.995999813079834 -0.805000007152557 L -5.995999813079834 -8.19200038909912 L -5.995999813079834 -16.38400077819824 M -8.567999839782715 -21.805000305175778 L -10.15999984741211 -21.805000305175778 L -10.15999984741211 -20.479999542236325 L -10.15999984741211 -16.38400077819824 L -10.15999984741211 -8.19200038909912 L -10.15999984741211 -0.805000007152557 L -8.567999839782715 -0.805000007152557 L -8.567999839782715 -8.19200038909912 L -8.567999839782715 -16.38400077819824 L -8.567999839782715 -20.479999542236325 L -8.567999839782715 -21.805000305175778 M -11.0600004196167 -20.479999542236325 L -11.0600004196167 -21.805000305175778 L -12.288000106811523 -21.805000305175778 L -12.604000091552734 -21.805000305175778 L -12.604000091552734 -20.479999542236325 L -12.604000091552734 -16.38400077819824 L -12.604000091552734 -8.19200038909912 L -12.604000091552734 -0.805000007152557 L -11.0600004196167 -0.805000007152557 L -11.0600004196167 -8.19200038909912 L -11.0600004196167 -16.38400077819824 L -11.0600004196167 -20.479999542236325 M -7.668000221252441 8.19200038909912 L -7.668000221252441 16.38400077819824 L -7.668000221252441 22.194999694824215 L -5.995999813079834 22.194999694824215 L -5.995999813079834 16.38400077819824 L -5.995999813079834 8.19200038909912 L -5.995999813079834 1.1950000524520874 L -7.668000221252441 1.1950000524520874 L -7.668000221252441 8.19200038909912 M -5.0960001945495605 8.19200038909912 L -5.0960001945495605 16.38400077819824 L -5.0960001945495605 22.194999694824215 L -3.503999948501587 22.194999694824215 L -3.503999948501587 16.38400077819824 L -3.503999948501587 8.19200038909912 L -3.503999948501587 1.1950000524520874 L -5.0960001945495605 1.1950000524520874 L -5.0960001945495605 8.19200038909912 M -2.6040000915527344 8.19200038909912 L -2.6040000915527344 16.38400077819824 L -2.6040000915527344 22.194999694824215 L -1.059999942779541 22.194999694824215 L -1.059999942779541 16.38400077819824 L -1.059999942779541 8.19200038909912 L -1.059999942779541 1.1950000524520874 L -2.6040000915527344 1.1950000524520874 L -2.6040000915527344 8.19200038909912 M -12.604000091552734 8.19200038909912 L -12.604000091552734 16.38400077819824 L -12.604000091552734 20.479999542236325 L -12.604000091552734 22.194999694824215 L -12.288000106811523 22.194999694824215 L -11.0600004196167 22.194999694824215 L -11.0600004196167 20.479999542236325 L -11.0600004196167 16.38400077819824 L -11.0600004196167 8.19200038909912 L -11.0600004196167 1.1950000524520874 L -12.604000091552734 1.1950000524520874 L -12.604000091552734 8.19200038909912 z" fill="none" stroke="rgb(255,0,0)" stroke-width="0.001mm" />
</svg>