0
SECTION
2
HEADER
9
$INSUNITS
70
4
9
$ACADVER
1
AC1014
9
$HANDSEED
5
FFFF
0
ENDSEC
0
SECTION
2
TABLES
0
TABLE
2
VPORT
5
8
100
AcDbSymbolTable
0
ENDTAB
0
TABLE
2
LTYPE
5
5
100
AcDbSymbolTable
0
LTYPE
5
14
100
AcDbSymbolTableRecord
100
AcDbLinetypeTableRecord
2
BYBLOCK
70
0
0
LTYPE
5
15
100
AcDbSymbolTableRecord
100
AcDbLinetypeTableRecord
2
BYLAYER
70
0
0
ENDTAB
0
TABLE
2
LAYER
5
2
100
AcDbSymbolTable
70
2
0
LAYER
5
50
100
AcDbSymbolTableRecord
100
AcDbLayerTableRecord
2
0
70
0
6
CONTINUOUS
0
ENDTAB
0
TABLE
2
STYLE
5
3
100
AcDbSymbolTable
70
1
0
STYLE
5
11
100
AcDbSymbolTableRecord
100
AcDbTextStyleTableRecord
2
STANDARD
70
0
0
ENDTAB
0
TABLE
2
VIEW
5
6
100
AcDbSymbolTable
70
0
0
ENDTAB
0
TABLE
2
UCS
5
7
100
AcDbSymbolTable
70
0
0
ENDTAB
0
TABLE
2
APPID
5
9
100
AcDbSymbolTable
70
2
0
APPID
5
12
100
AcDbSymbolTableRecord
100
AcDbRegAppTableRecord
2
ACAD
70
0
0
ENDTAB
0
TABLE
2
DIMSTYLE
5
A
100
AcDbSymbolTable
70
1
0
ENDTAB
0
TABLE
2
BLOCK_RECORD
5
1
100
AcDbSymbolTable
70
1
0
BLOCK_RECORD
5
1F
100
AcDbSymbolTableRecord
100
AcDbBlockTableRecord
2
*MODEL_SPACE
0
BLOCK_RECORD
5
1B
100
AcDbSymbolTableRecord
100
AcDbBlockTableRecord
2
*PAPER_SPACE
0
ENDTAB
0
ENDSEC
0
SECTION
2
BLOCKS
0
BLOCK
5
20
100
AcDbEntity
100
AcDbBlockBegin
2
*MODEL_SPACE
0
ENDBLK
5
21
100
AcDbEntity
100
AcDbBlockEnd
0
BLOCK
5
1C
100
AcDbEntity
100
AcDbBlockBegin
2
*PAPER_SPACE
0
ENDBLK
5
1D
100
AcDbEntity
100
AcDbBlockEnd
0
ENDSEC
0
SECTION
2
ENTITIES
0
LWPOLYLINE
5
100
100
AcDbEntity
8
0
100
AcDbPolyline
90
4
70
1
43
0.0
10
0
20
-76.800003051757997
10
0
20
0
10
-115.00000762939001
20
0
10
-115.00000762939001
20
-76.800003051757997
0
LWPOLYLINE
5
101
100
AcDbEntity
8
0
100
AcDbPolyline
90
4
70
1
43
0.0
10
-101.97200775146001
20
-72.98991394043
10
-79.972007751465
20
-72.98991394043
10
-79.972007751465
20
-75.389907836914006
10
-101.97200775146001
20
-75.389907836914006
0
LWPOLYLINE
5
102
100
AcDbEntity
8
0
100
AcDbPolyline
90
4
70
1
43
0.0
10
-101.97200775146001
20
-2.172912597656
10
-79.972007751465
20
-2.172912597656
10
-79.972007751465
20
-4.5729064941409998
10
-101.97200775146001
20
-4.5729064941409998
0
LWPOLYLINE
5
103
100
AcDbEntity
8
0
100
AcDbPolyline
90
4
70
1
43
0.0
10
-15.025650024414002
20
-72.98991394043
10
-15.025650024414002
20
-75.389907836914006
10
-34.025650024413999
20
-75.389907836914006
10
-34.025650024413999
20
-72.98991394043
0
LWPOLYLINE
5
104
100
AcDbEntity
8
0
100
AcDbPolyline
90
4
70
1
43
0.0
10
-15.025650024414002
20
-4.5729064941409998
10
-34.025650024413999
20
-4.5729064941409998
10
-34.025650024413999
20
-2.172912597656
10
-15.025650024414002
20
-2.172912597656
0
LWPOLYLINE
5
105
100
AcDbEntity
8
0
100
AcDbPolyline
90
4
70
1
43
0.0
10
-1.2911415100100001
20
-18.970306396483998
10
-1.2911415100100001
20
-27.970306396483998
10
-3.6911392211909999
20
-27.970306396483998
10
-3.6911392211909999
20
-18.970306396483998
0
LWPOLYLINE
5
106
100
AcDbEntity
8
0
100
AcDbPolyline
90
4
70
1
43
0.0
10
-1.360034942627
20
-55.018692016602003
10
-1.360034942627
20
-64.018692016602017
10
-3.7600326538090001
20
-64.018692016602017
10
-3.7600326538090001
20
-55.018692016602003
0
LWPOLYLINE
5
107
100
AcDbEntity
8
0
100
AcDbPolyline
90
4
70
1
43
0.0
10
-110.91963958740001
20
-18.970306396483998
10
-110.91963958740001
20
-27.970306396483998
10
-113.31963348388001
20
-27.970306396483998
10
-113.31963348388001
20
-18.970306396483998
0
LWPOLYLINE
5
108
100
AcDbEntity
8
0
100
AcDbPolyline
90
4
70
1
43
0.0
10
-113.31963348388001
20
-54.339752197266009
10
-110.91963958740001
20
-54.339752197266009
10
-110.91963958740001
20
-63.339752197266002
10
-113.31963348388001
20
-63.339752197266002
0
LWPOLYLINE
5
109
100
AcDbEntity
8
0
100
AcDbPolyline
90
33
70
1
43
0.0
10
-5.2547912597659998
20
-68.64094543457
10
-5.0468750000000009
20
-69.029937744140994
10
-4.9188385009770013
20
-69.452011108398011
10
-4.8756027221679998
20
-69.890975952147997
10
-4.9188385009770013
20
-70.329925537109006
10
-5.0468750000000009
20
-70.752014160155994
10
-5.2547912597659998
20
-71.141006469727003
10
-5.5346145629879997
20
-71.481964111327997
10
-5.8755722045900001
20
-71.761779785155994
10
-6.2645645141599999
20
-71.969696044922003
10
-6.6866531372070002
20
-72.097747802734006
10
-7.1256027221680007
20
-72.140975952147997
10
-7.5645599365229996
20
-72.097747802734006
10
-7.9866409301759997
20
-71.969696044922003
10
-8.3756408691409998
20
-71.761779785155994
10
-8.7165908813480009
20
-71.481964111327997
10
-8.9964141845699999
20
-71.141006469727003
10
-9.2043380737299998
20
-70.752014160155994
10
-9.3323745727540004
20
-70.329925537109006
10
-9.3756103515620008
20
-69.890975952147997
10
-9.3323745727540004
20
-69.452011108398011
10
-9.2043380737299998
20
-69.029937744140994
10
-8.9964141845699999
20
-68.64094543457
10
-8.7165908813480009
20
-68.29997253418
10
-8.3756408691409998
20
-68.020156860352017
10
-7.9866409301759997
20
-67.812240600585994
10
-7.5645599365229996
20
-67.684204101562003
10
-7.1256027221680007
20
-67.640975952147997
10
-6.9100952148439996
20
-67.662200927734006
10
-6.6866531372070002
20
-67.684204101562003
10
-6.2645645141599999
20
-67.812240600585994
10
-5.8755722045900001
20
-68.020156860352017
10
-5.5346145629879997
20
-68.29997253418
0
LWPOLYLINE
5
110
100
AcDbEntity
8
0
100
AcDbPolyline
90
32
70
1
43
0.0
10
-5.5346145629879997
20
-10.030853271484002
10
-5.8755722045900001
20
-10.310668945312001
10
-6.2645645141599999
20
-10.518585205078001
10
-6.6866531372070002
20
-10.646636962891002
10
-7.1256027221680007
20
-10.689865112305002
10
-7.5645599365229996
20
-10.646636962891002
10
-7.9866409301759997
20
-10.518585205078001
10
-8.3756408691409998
20
-10.310668945312001
10
-8.7165908813480009
20
-10.030853271484002
10
-8.9964141845699999
20
-9.6898956298830008
10
-9.2043380737299998
20
-9.3009033203120026
10
-9.3323745727540004
20
-8.8788146972659998
10
-9.3756103515620008
20
-8.4398651123050001
10
-9.3323745727540004
20
-8.0009002685550001
10
-9.2043380737299998
20
-7.5788269042970002
10
-8.9964141845699999
20
-7.1898345947270004
10
-8.7165908813480009
20
-6.8488616943360006
10
-8.3756408691409998
20
-6.5690612792970002
10
-7.9866409301759997
20
-6.3611450195310004
10
-7.5645599365229996
20
-6.2330932617190005
10
-7.1256027221680007
20
-6.189865112305001
10
-6.6866531372070002
20
-6.2330932617190005
10
-6.2645645141599999
20
-6.3611450195310004
10
-5.8755722045900001
20
-6.5690612792970002
10
-5.5346145629879997
20
-6.8488616943360006
10
-5.2547912597659998
20
-7.1898345947270004
10
-5.0468750000000009
20
-7.5788269042970002
10
-4.9188385009770013
20
-8.0009002685550001
10
-4.8756027221679998
20
-8.4398651123050001
10
-4.9188385009770013
20
-8.8788146972659998
10
-5.0468750000000009
20
-9.3009033203120026
10
-5.2547912597659998
20
-9.6898956298830008
0
LWPOLYLINE
5
111
100
AcDbEntity
8
0
100
AcDbPolyline
90
33
70
1
43
0.0
10
-107.21546173095
20
-6.2330932617190005
10
-106.79337310791
20
-6.3611450195310004
10
-106.40438079834
20
-6.5690612792970002
10
-106.06342315673001
20
-6.8488616943360006
10
-105.78360748291001
20
-7.1898345947270004
10
-105.59703826904
20
-7.5388793945310004
10
-105.57567596435
20
-7.5788269042970002
10
-105.44763946533001
20
-8.0009002685550001
10
-105.40441131591001
20
-8.4398651123050001
10
-105.44763946533001
20
-8.8788146972659998
10
-105.57567596435
20
-9.3009033203120026
10
-105.78360748291001
20
-9.6898956298830008
10
-106.06342315673001
20
-10.030853271484002
10
-106.40438079834
20
-10.310668945312001
10
-106.79337310791
20
-10.518585205078001
10
-107.21546173095
20
-10.646636962891002
10
-107.65441131591001
20
-10.689865112305002
10
-108.09336090087001
20
-10.646636962891002
10
-108.51544952392001
20
-10.518585205078001
10
-108.90444183349001
20
-10.310668945312001
10
-109.24539947509001
20
-10.030853271484002
10
-109.52521514892
20
-9.6898956298830008
10
-109.73314666748001
20
-9.3009033203120026
10
-109.86116790771
20
-8.8788146972659998
10
-109.90441131591
20
-8.4398651123050001
10
-109.86116790771
20
-8.0009002685550001
10
-109.73314666748001
20
-7.5788269042970002
10
-109.52521514892
20
-7.1898345947270004
10
-109.24539947509001
20
-6.8488616943360006
10
-108.90444183349001
20
-6.5690612792970002
10
-108.51544952392001
20
-6.3611450195310004
10
-108.09336090087001
20
-6.2330932617190005
10
-107.65441131591001
20
-6.189865112305001
0
LWPOLYLINE
5
112
100
AcDbEntity
8
0
100
AcDbPolyline
90
32
70
1
43
0.0
10
-106.06342315673001
20
-68.29997253418
10
-105.78360748291001
20
-68.64094543457
10
-105.57567596435
20
-69.029937744140994
10
-105.44763946533001
20
-69.452011108398011
10
-105.40441131591001
20
-69.890975952147997
10
-105.44763946533001
20
-70.329925537109006
10
-105.57567596435
20
-70.752014160155994
10
-105.78360748291001
20
-71.141006469727003
10
-106.06342315673001
20
-71.481964111327997
10
-106.40438079834
20
-71.761779785155994
10
-106.79337310791
20
-71.969696044922003
10
-107.21546173095
20
-72.097747802734006
10
-107.65441131591001
20
-72.140975952147997
10
-108.09336090087001
20
-72.097747802734006
10
-108.51544952392001
20
-71.969696044922003
10
-108.90444183349001
20
-71.761779785155994
10
-109.24539947509001
20
-71.481964111327997
10
-109.52521514892
20
-71.141006469727003
10
-109.73314666748001
20
-70.752014160155994
10
-109.86116790771
20
-70.329925537109006
10
-109.90441131591
20
-69.890975952147997
10
-109.86116790771
20
-69.452011108398011
10
-109.73314666748001
20
-69.029937744140994
10
-109.52521514892
20
-68.64094543457
10
-109.24539947509001
20
-68.29997253418
10
-108.90444183349001
20
-68.020156860352017
10
-108.51544952392001
20
-67.812240600585994
10
-108.09336090087001
20
-67.684204101562003
10
-107.65441131591001
20
-67.640975952147997
10
-107.21546173095
20
-67.684204101562003
10
-106.79337310791
20
-67.812240600585994
10
-106.40438079834
20
-68.020156860352017
0
ENDSEC
0
SECTION
2
OBJECTS
0
DICTIONARY
5
C
100
AcDbDictionary
3
ACAD_GROUP
350
D
3
ACAD_MLINESTYLE
350
17
0
DICTIONARY
5
D
100
AcDbDictionary
0
DICTIONARY
5
1A
330
C
100
AcDbDictionary
0
DICTIONARY
5
17
100
AcDbDictionary
0
ENDSEC
0
EOF
