0
SECTION
2
HEADER
9
$INSUNITS
70
4
9
$ACADVER
1
AC1014
9
$HANDSEED
5
FFFF
0
ENDSEC
0
SECTION
2
TABLES
0
TABLE
2
VPORT
5
8
100
AcDbSymbolTable
0
ENDTAB
0
TABLE
2
LTYPE
5
5
100
AcDbSymbolTable
0
LTYPE
5
14
100
AcDbSymbolTableRecord
100
AcDbLinetypeTableRecord
2
BYBLOCK
70
0
0
LTYPE
5
15
100
AcDbSymbolTableRecord
100
AcDbLinetypeTableRecord
2
BYLAYER
70
0
0
ENDTAB
0
TABLE
2
LAYER
5
2
100
AcDbSymbolTable
70
2
0
LAYER
5
50
100
AcDbSymbolTableRecord
100
AcDbLayerTableRecord
2
0
70
0
6
CONTINUOUS
0
ENDTAB
0
TABLE
2
STYLE
5
3
100
AcDbSymbolTable
70
1
0
STYLE
5
11
100
AcDbSymbolTableRecord
100
AcDbTextStyleTableRecord
2
STANDARD
70
0
0
ENDTAB
0
TABLE
2
VIEW
5
6
100
AcDbSymbolTable
70
0
0
ENDTAB
0
TABLE
2
UCS
5
7
100
AcDbSymbolTable
70
0
0
ENDTAB
0
TABLE
2
APPID
5
9
100
AcDbSymbolTable
70
2
0
APPID
5
12
100
AcDbSymbolTableRecord
100
AcDbRegAppTableRecord
2
ACAD
70
0
0
ENDTAB
0
TABLE
2
DIMSTYLE
5
A
100
AcDbSymbolTable
70
1
0
ENDTAB
0
TABLE
2
BLOCK_RECORD
5
1
100
AcDbSymbolTable
70
1
0
BLOCK_RECORD
5
1F
100
AcDbSymbolTableRecord
100
AcDbBlockTableRecord
2
*MODEL_SPACE
0
BLOCK_RECORD
5
1B
100
AcDbSymbolTableRecord
100
AcDbBlockTableRecord
2
*PAPER_SPACE
0
ENDTAB
0
ENDSEC
0
SECTION
2
BLOCKS
0
BLOCK
5
20
100
AcDbEntity
100
AcDbBlockBegin
2
*MODEL_SPACE
0
ENDBLK
5
21
100
AcDbEntity
100
AcDbBlockEnd
0
BLOCK
5
1C
100
AcDbEntity
100
AcDbBlockBegin
2
*PAPER_SPACE
0
ENDBLK
5
1D
100
AcDbEntity
100
AcDbBlockEnd
0
ENDSEC
0
SECTION
2
ENTITIES
0
LWPOLYLINE
5
100
100
AcDbEntity
8
0
100
AcDbPolyline
90
20
70
1
43
0.0
10
11.759178161621
20
44.470539093017997
10
0
20
44.470539093017997
10
0
20
3.1393890380859979
10
11.759201049805002
20
3.1393890380860001
10
11.759201049805002
20
0
10
29.458587646483998
20
0
10
29.458587646483998
20
3.1393890380860001
10
77.041519165039006
20
3.1393890380860001
10
77.041519165039006
20
0
10
96.818084716797017
20
0
10
96.818084716797017
20
3.1393890380860001
10
106.50010681152
20
3.1393890380860001
10
106.50010681152
20
44.470539093017997
10
96.818099975586009
20
44.470539093017997
10
96.818099975586009
20
47.582901000977003
10
77.041519165039006
20
47.582901000977003
10
77.041519165039006
20
44.470539093017997
10
29.458572387695003
20
44.470539093017997
10
29.458572387695003
20
47.582901000977003
10
11.759178161621
20
47.582901000977003
0
LWPOLYLINE
5
101
100
AcDbEntity
8
0
100
AcDbPolyline
90
8
70
1
43
0.0
10
8.4021530151369994
20
15.915405273437999
10
24.402160644531001
20
15.915405273437999
10
24.402160644531001
20
14.317274093628001
10
32.994834899902003
20
14.317274093628001
10
32.994834899902003
20
6.0172729492190005
10
16.994827270508001
20
6.0172729492190005
10
16.994827270508001
20
12.915406227112001
10
8.4021530151369994
20
12.915406227112001
0
LWPOLYLINE
5
102
100
AcDbEntity
8
0
100
AcDbPolyline
90
4
70
1
43
0.0
10
45.443664550781008
20
14.317274093628001
10
61.443664550781001
20
14.317274093628001
10
61.443664550781001
20
6.0172729492190005
10
45.443664550781008
20
6.0172729492190005
0
LWPOLYLINE
5
103
100
AcDbEntity
8
0
100
AcDbPolyline
90
4
70
1
43
0.0
10
74.293182373047003
20
6.0172729492190005
10
74.293182373047003
20
14.317274093628001
10
90.293182373047003
20
14.317274093628001
10
90.293182373047003
20
6.0172729492190005
0
LWPOLYLINE
5
104
100
AcDbEntity
8
0
100
AcDbPolyline
90
104
70
1
43
0.0
10
79.363876342772997
20
24.729589462280003
10
79.257904052734006
20
24.742975234985
10
79.152297973632997
20
24.759023666382003
10
79.047149658203011
20
24.777719497681005
10
78.942489624022997
20
24.799053192139002
10
78.838394165039006
20
24.823009490967003
10
78.734939575195
20
24.849575042725004
10
78.632186889647997
20
24.878730773926002
10
78.530197143555
20
24.910461425781001
10
78.42903137207
20
24.944742202759002
10
78.328765869140994
20
24.981557846069002
10
78.229446411132997
20
25.020881652832003
10
78.131164550780994
20
25.062686920166005
10
78.033950805664006
20
25.106950759888001
10
77.937881469727003
20
25.153644561768004
10
77.843017578125
20
25.202735900878999
10
77.749420166015994
20
25.254196166991999
10
77.657150268555
20
25.307994842528998
10
77.566253662109006
20
25.364093780518004
10
77.476791381835994
20
25.422458648681999
10
77.43278503418
20
25.452770233153998
10
74.093521118164006
20
25.452770233153998
10
74.093521118164006
20
32.452770233153998
10
77.43278503418
20
32.452770233153998
10
77.476791381835994
20
32.48308181762701
10
77.566253662109006
20
32.541450500487997
10
77.657150268555
20
32.597545623778998
10
77.749420166015994
20
32.651344299316001
10
77.843017578125
20
32.70280456543
10
77.937881469727003
20
32.751895904541001
10
78.033950805664006
20
32.79859161377
10
78.131164550780994
20
32.842853546142997
10
78.229446411132997
20
32.884658813477003
10
78.328765869140994
20
32.923980712891002
10
78.42903137207
20
32.960796356201001
10
78.530197143555
20
32.995079040527003
10
78.632186889647997
20
33.026809692382997
10
78.734939575195
20
33.055965423583999
10
78.838394165039006
20
33.082530975342003
10
78.942489624022997
20
33.106491088867003
10
79.047149658203011
20
33.127822875977003
10
79.152297973632997
20
33.146518707275007
10
79.257904052734006
20
33.162567138672003
10
79.363876342772997
20
33.175952911377003
10
79.470138549805
20
33.186676025391002
10
79.57666015625
20
33.194721221923999
10
79.683334350585994
20
33.200084686278998
10
79.790115356445
20
33.202770233153998
10
79.896911621094006
20
33.202770233153998
10
80.003692626952997
20
33.200084686278998
10
80.11036682128902
20
33.194721221923999
10
80.216888427734006
20
33.186676025391002
10
80.323150634766009
20
33.175952911377003
10
80.429122924805
20
33.162567138672003
10
80.534713745117003
20
33.146518707275007
10
80.639877319335994
20
33.127822875977003
10
80.744537353515994
20
33.106491088867003
10
80.8486328125
20
33.082530975342003
10
80.952087402344006
20
33.055965423583999
10
81.054840087890994
20
33.026809692382997
10
81.156829833984006
20
32.995079040527003
10
81.257995605469006
20
32.960796356201001
10
81.358261108397997
20
32.923980712891002
10
81.457565307617003
20
32.884658813477003
10
81.555862426758011
20
32.842853546142997
10
81.653076171875
20
32.79859161377
10
81.749145507812017
20
32.751895904541001
10
81.844009399414006
20
32.70280456543
10
81.937606811522997
20
32.651344299316001
10
82.029876708984006
20
32.597545623778998
10
82.12077331543
20
32.541450500487997
10
82.210235595702997
20
32.48308181762701
10
82.254241943359006
20
32.452770233153998
10
85.593505859375
20
32.452770233153998
10
85.593505859375
20
25.452770233153998
10
82.25422668457
20
25.452770233153998
10
82.210235595702997
20
25.422458648681999
10
82.12077331543
20
25.364093780518004
10
82.029876708984006
20
25.307994842528998
10
81.937606811522997
20
25.254196166991999
10
81.844009399414006
20
25.202735900878999
10
81.749145507812017
20
25.153644561768004
10
81.653076171875
20
25.106950759888001
10
81.555862426758011
20
25.062686920166005
10
81.457565307617003
20
25.020881652832003
10
81.358261108397997
20
24.981557846069002
10
81.257995605469006
20
24.944742202759002
10
81.156829833984006
20
24.910461425781001
10
81.054840087890994
20
24.878730773926002
10
80.952087402344006
20
24.849575042725004
10
80.8486328125
20
24.823009490967003
10
80.744537353515994
20
24.799053192139002
10
80.639877319335994
20
24.777719497681005
10
80.534713745117003
20
24.759023666382003
10
80.429122924805
20
24.742975234985
10
80.323150634766009
20
24.729589462280003
10
80.216888427734006
20
24.718868255615
10
80.11036682128902
20
24.710821151733001
10
80.003692626952997
20
24.705453872681002
10
79.896911621094006
20
24.702770233154002
10
79.790115356445
20
24.702770233154002
10
79.683334350585994
20
24.705453872681002
10
79.57666015625
20
24.710821151733001
10
79.470138549805
20
24.718868255615
0
ENDSEC
0
SECTION
2
OBJECTS
0
DICTIONARY
5
C
100
AcDbDictionary
3
ACAD_GROUP
350
D
3
ACAD_MLINESTYLE
350
17
0
DICTIONARY
5
D
100
AcDbDictionary
0
DICTIONARY
5
1A
330
C
100
AcDbDictionary
0
DICTIONARY
5
17
100
AcDbDictionary
0
ENDSEC
0
EOF
