0
SECTION
2
HEADER
9
$INSUNITS
70
4
9
$ACADVER
1
AC1014
9
$HANDSEED
5
FFFF
0
ENDSEC
0
SECTION
2
TABLES
0
TABLE
2
VPORT
5
8
100
AcDbSymbolTable
0
ENDTAB
0
TABLE
2
LTYPE
5
5
100
AcDbSymbolTable
0
LTYPE
5
14
100
AcDbSymbolTableRecord
100
AcDbLinetypeTableRecord
2
BYBLOCK
70
0
0
LTYPE
5
15
100
AcDbSymbolTableRecord
100
AcDbLinetypeTableRecord
2
BYLAYER
70
0
0
ENDTAB
0
TABLE
2
LAYER
5
2
100
AcDbSymbolTable
70
2
0
LAYER
5
50
100
AcDbSymbolTableRecord
100
AcDbLayerTableRecord
2
0
70
0
6
CONTINUOUS
0
ENDTAB
0
TABLE
2
STYLE
5
3
100
AcDbSymbolTable
70
1
0
STYLE
5
11
100
AcDbSymbolTableRecord
100
AcDbTextStyleTableRecord
2
STANDARD
70
0
0
ENDTAB
0
TABLE
2
VIEW
5
6
100
AcDbSymbolTable
70
0
0
ENDTAB
0
TABLE
2
UCS
5
7
100
AcDbSymbolTable
70
0
0
ENDTAB
0
TABLE
2
APPID
5
9
100
AcDbSymbolTable
70
2
0
APPID
5
12
100
AcDbSymbolTableRecord
100
AcDbRegAppTableRecord
2
ACAD
70
0
0
ENDTAB
0
TABLE
2
DIMSTYLE
5
A
100
AcDbSymbolTable
70
1
0
ENDTAB
0
TABLE
2
BLOCK_RECORD
5
1
100
AcDbSymbolTable
70
1
0
BLOCK_RECORD
5
1F
100
AcDbSymbolTableRecord
100
AcDbBlockTableRecord
2
*MODEL_SPACE
0
BLOCK_RECORD
5
1B
100
AcDbSymbolTableRecord
100
AcDbBlockTableRecord
2
*PAPER_SPACE
0
ENDTAB
0
ENDSEC
0
SECTION
2
BLOCKS
0
BLOCK
5
20
100
AcDbEntity
100
AcDbBlockBegin
2
*MODEL_SPACE
0
ENDBLK
5
21
100
AcDbEntity
100
AcDbBlockEnd
0
BLOCK
5
1C
100
AcDbEntity
100
AcDbBlockBegin
2
*PAPER_SPACE
0
ENDBLK
5
1D
100
AcDbEntity
100
AcDbBlockEnd
0
ENDSEC
0
SECTION
2
ENTITIES
0
LWPOLYLINE
5
100
100
AcDbEntity
8
0
100
AcDbPolyline
90
4
70
1
43
0.0
10
0
20
-76.799987792969006
10
0
20
0
10
-115.00000762939001
20
0
10
-115.00000762939001
20
-76.799987792969006
0
LWPOLYLINE
5
101
100
AcDbEntity
8
0
100
AcDbPolyline
90
129
70
1
43
0.0
10
-77.284492492675994
20
-39.204971313477003
10
-76.384483337402003
20
-39.204971313477003
10
-76.384483337402003
20
-60.195838928223004
10
-76.307395935059006
20
-60.198387145996008
10
-76.14780426025402
20
-60.201690673827997
10
-75.988212585449006
20
-60.20357513427701
10
-75.828605651855
20
-60.204513549805007
10
-75.668998718262003
20
-60.204879760742003
10
-75.509391784667997
20
-60.204978942871001
10
-74.840339660645
20
-60.204978942871001
10
-74.840339660645
20
-39.204971313477003
10
-73.940345764160014
20
-39.204971313477003
10
-73.940345764160014
20
-60.204978942871001
10
-72.348274230957003
20
-60.204978942871001
10
-72.348274230957003
20
-39.204971313477003
10
-71.448265075684006
20
-39.204971313477003
10
-71.448265075684006
20
-60.204978942871001
10
-69.85619354248
20
-60.204978942871001
10
-69.85619354248
20
-39.204971313477003
10
-68.956199645996008
20
-39.204971313477003
10
-68.956199645996008
20
-60.204978942871001
10
-67.364120483397997
20
-60.204978942871001
10
-67.364120483397997
20
-39.204971313477003
10
-66.46411895752
20
-39.204971313477003
10
-66.46411895752
20
-60.204978942871001
10
-64.919975280762003
20
-60.204978942871001
10
-64.919975280762003
20
-39.204971313477003
10
-64.019981384277003
20
-39.204971313477003
10
-64.019981384277003
20
-60.204978942871001
10
-62.427902221680007
20
-60.204978942871001
10
-62.427902221680007
20
-39.204971313477003
10
-61.527900695801002
20
-39.204971313477003
10
-61.527900695801002
20
-60.204978942871001
10
-59.832313537597997
20
-60.204978942871001
10
-59.832313537597997
20
-39.204971313477003
10
-58.932312011719006
20
-39.204971313477003
10
-58.932312011719006
20
-60.204978942871001
10
-57.34024810791
20
-60.204978942871001
10
-57.34024810791
20
-39.204971313477003
10
-56.440246582031008
20
-39.204971313477003
10
-56.440246582031008
20
-60.204978942871001
10
-54.896095275879006
20
-60.204978942871001
10
-54.896095275879006
20
-39.204971313477003
10
-53.996093750000007
20
-39.204971313477003
10
-53.996093750000007
20
-60.204978942871001
10
-52.40402221679701
20
-60.204978942871001
10
-52.40402221679701
20
-39.204971313477003
10
-51.50402832031201
20
-39.204971313477003
10
-51.50402832031201
20
-60.204978942871001
10
-49.83207702636701
20
-60.204978942871001
10
-49.83207702636701
20
-39.204971313477003
10
-48.932075500487997
20
-39.204971313477003
10
-48.932075500487997
20
-60.204978942871001
10
-47.340003967285
20
-60.204978942871001
10
-47.340003967285
20
-39.204971313477003
10
-46.440010070801002
20
-39.204971313477003
10
-46.440010070801002
20
-60.204978942871001
10
-44.895858764648004
20
-60.204978942871001
10
-44.895858764648004
20
-39.204971313477003
10
-43.99585723877
20
-39.204971313477003
10
-43.99585723877
20
-60.204978942871001
10
-43.514038085938004
20
-60.204978942871001
10
-43.354431152344006
20
-60.204879760742003
10
-43.194824218750007
20
-60.204513549805007
10
-43.035217285156008
20
-60.20357513427701
10
-42.87561798095701
20
-60.201690673827997
10
-42.716033935547003
20
-60.198387145996008
10
-42.556495666504006
20
-60.193115234375007
10
-42.403785705566001
20
-60.185546875
10
-42.403785705566001
20
-39.204971313477003
10
-41.503784179687997
20
-39.204971313477003
10
-41.503784179687997
20
-60.04776763916
10
-41.450798034667997
20
-60.03296661377
10
-41.298393249512003
20
-59.979461669922003
10
-41.149597167968999
20
-59.914329528808999
10
-41.005767822266002
20
-59.836265563965007
10
-40.868553161621001
20
-59.744277954102003
10
-40.73979187011701
20
-59.637878417969006
10
-40.621246337891002
20
-59.517303466797003
10
-40.51437377929701
20
-59.383567810059006
10
-40.420066833496008
20
-59.238288879395
10
-40.338523864746001
20
-59.083480834961009
10
-40.269332885742003
20
-58.921218872070007
10
-40.211601257323998
20
-58.75333404541
10
-40.164184570312003
20
-58.581398010254006
10
-40.125816345215
20
-58.406616210938004
10
-40.09526062011701
20
-58.229873657227003
10
-40.071342468262003
20
-58.051834106445
10
-40.05298614502
20
-57.872955322266009
10
-40.039237976073998
20
-57.693550109862997
10
-40.029235839844006
20
-57.51383972168
10
-40.022232055664006
20
-57.333938598632997
10
-40.01754760742201
20
-57.153945922852003
10
-40.014625549316001
20
-56.973915100098004
10
-40.012954711914006
20
-56.793846130371008
10
-40.012130737305
20
-56.613784790039006
10
-40.01180267334
20
-56.433715820312003
10
-40.01171875
20
-56.253639221191001
10
-40.011711120605
20
-56.073570251465
10
-40.011711120605
20
-39.204971313477003
10
-41.503784179687997
20
-39.204971313477003
10
-42.403785705566001
20
-39.204971313477003
10
-43.99585723877
20
-39.204971313477003
10
-44.895858764648004
20
-39.204971313477003
10
-46.440010070801002
20
-39.204971313477003
10
-47.340003967285
20
-39.204971313477003
10
-48.932075500487997
20
-39.204971313477003
10
-49.83207702636701
20
-39.204971313477003
10
-51.50402832031201
20
-39.204971313477003
10
-52.40402221679701
20
-39.204971313477003
10
-53.996093750000007
20
-39.204971313477003
10
-54.896095275879006
20
-39.204971313477003
10
-56.440246582031008
20
-39.204971313477003
10
-57.34024810791
20
-39.204971313477003
10
-58.932312011719006
20
-39.204971313477003
10
-59.832313537597997
20
-39.204971313477003
10
-61.527900695801002
20
-39.204971313477003
10
-62.427902221680007
20
-39.204971313477003
10
-64.019981384277003
20
-39.204971313477003
10
-64.919975280762003
20
-39.204971313477003
10
-66.46411895752
20
-39.204971313477003
10
-67.364120483397997
20
-39.204971313477003
10
-68.956199645996008
20
-39.204971313477003
10
-69.85619354248
20
-39.204971313477003
10
-71.448265075684006
20
-39.204971313477003
10
-72.348274230957003
20
-39.204971313477003
10
-73.940345764160014
20
-39.204971313477003
10
-74.840339660645
20
-39.204971313477003
10
-76.384483337402003
20
-39.204971313477003
0
LWPOLYLINE
5
102
100
AcDbEntity
8
0
100
AcDbPolyline
90
30
70
1
43
0.0
10
-77.284492492675994
20
-39.204971313477003
10
-77.284492492675994
20
-60.105560302733998
10
-77.417701721191008
20
-60.076248168945
10
-77.572639465332003
20
-60.03296661377
10
-77.725028991699006
20
-59.979461669922003
10
-77.873832702637003
20
-59.914329528808999
10
-78.01766204834
20
-59.836265563965007
10
-78.15486907959
20
-59.744277954102003
10
-78.283638000487997
20
-59.637878417969006
10
-78.402183532715
20
-59.517303466797003
10
-78.50905609130902
20
-59.383567810059006
10
-78.603370666504006
20
-59.238288879395
10
-78.684898376465
20
-59.083480834961009
10
-78.754096984862997
20
-58.921218872070007
10
-78.811820983887003
20
-58.75333404541
10
-78.859245300292997
20
-58.581398010254006
10
-78.897605895996008
20
-58.406616210938004
10
-78.928169250487997
20
-58.229873657227003
10
-78.952095031737997
20
-58.051834106445
10
-78.970436096191008
20
-57.872955322266009
10
-78.984184265137003
20
-57.693550109862997
10
-78.994194030762003
20
-57.51383972168
10
-79.001197814940994
20
-57.333938598632997
10
-79.00588226318402
20
-57.153945922852003
10
-79.008796691895
20
-56.973915100098004
10
-79.010475158690994
20
-56.793846130371008
10
-79.011299133300994
20
-56.613784790039006
10
-79.011619567870994
20
-56.433715820312003
10
-79.011711120605
20
-56.253639221191001
10
-79.011711120605
20
-39.204971313477003
0
LWPOLYLINE
5
103
100
AcDbEntity
8
0
100
AcDbPolyline
90
8
70
1
43
0.0
10
-1.2220115661619999
20
-17.799293518066001
10
-1.2220115661619999
20
-38.299293518065994
10
-3.417846679688
20
-38.299293518066001
10
-3.417846679688
20
-43.100410461426002
10
-6.917846679688
20
-43.100410461426002
10
-6.917846679688
20
-11.600410461426002
10
-3.417846679688
20
-11.600410461426002
10
-3.417846679688
20
-17.799293518066001
0
LWPOLYLINE
5
104
100
AcDbEntity
8
0
100
AcDbPolyline
90
4
70
1
43
0.0
10
-101.97200775146001
20
-75.389907836914006
10
-101.97200775146001
20
-72.989898681640994
10
-79.972007751465
20
-72.989898681640994
10
-79.972007751465
20
-75.389907836914006
0
LWPOLYLINE
5
105
100
AcDbEntity
8
0
100
AcDbPolyline
90
4
70
1
43
0.0
10
-79.972007751465
20
-4.5729064941409998
10
-101.97200775146001
20
-4.5729064941409998
10
-101.97200775146001
20
-2.172912597656
10
-79.972007751465
20
-2.172912597656
0
LWPOLYLINE
5
106
100
AcDbEntity
8
0
100
AcDbPolyline
90
4
70
1
43
0.0
10
-110.91963958740001
20
-17.119956970215
10
-110.91963958740001
20
-38.11994934082
10
-113.31963348388001
20
-38.11994934082
10
-113.31963348388001
20
-17.119956970215
0
LWPOLYLINE
5
107
100
AcDbEntity
8
0
100
AcDbPolyline
90
4
70
1
43
0.0
10
-61.527900695801002
20
-16.204986572266002
10
-59.832313537597997
20
-16.204986572266002
10
-59.832313537597997
20
-37.204971313477003
10
-61.527900695801002
20
-37.204971313477003
0
LWPOLYLINE
5
108
100
AcDbEntity
8
0
100
AcDbPolyline
90
4
70
1
43
0.0
10
-51.50402832031201
20
-16.204986572266002
10
-49.83207702636701
20
-16.204986572266002
10
-49.83207702636701
20
-37.204971313477003
10
-51.50402832031201
20
-37.204971313477003
0
LWPOLYLINE
5
109
100
AcDbEntity
8
0
100
AcDbPolyline
90
4
70
1
43
0.0
10
-64.019981384277003
20
-16.204986572266002
10
-62.427902221680007
20
-16.204986572266002
10
-62.427902221680007
20
-37.204971313477003
10
-64.019981384277003
20
-37.204971313477003
0
LWPOLYLINE
5
110
100
AcDbEntity
8
0
100
AcDbPolyline
90
4
70
1
43
0.0
10
-68.956199645996008
20
-16.204986572266002
10
-67.364120483397997
20
-16.204986572266002
10
-67.364120483397997
20
-37.204971313477003
10
-68.956199645996008
20
-37.204971313477003
0
LWPOLYLINE
5
111
100
AcDbEntity
8
0
100
AcDbPolyline
90
12
70
1
43
0.0
10
-43.99585723877
20
-16.204986572266002
10
-43.673645019531008
20
-16.204986572266002
10
-43.514038085938004
20
-16.20499420166
10
-43.354431152344006
20
-16.205078125
10
-43.194824218750007
20
-16.205451965331999
10
-43.035217285156008
20
-16.206382751465
10
-42.87561798095701
20
-16.208267211913999
10
-42.716033935547003
20
-16.211570739746001
10
-42.556495666504006
20
-16.216842651366999
10
-42.403785705566001
20
-16.224418640136999
10
-42.403785705566001
20
-37.204971313477003
10
-43.99585723877
20
-37.204971313477003
0
LWPOLYLINE
5
112
100
AcDbEntity
8
0
100
AcDbPolyline
90
4
70
1
43
0.0
10
-48.932075500487997
20
-16.204986572266002
10
-47.340003967285
20
-16.204986572266002
10
-47.340003967285
20
-37.204971313477003
10
-48.932075500487997
20
-37.204971313477003
0
LWPOLYLINE
5
113
100
AcDbEntity
8
0
100
AcDbPolyline
90
4
70
1
43
0.0
10
-53.996093750000007
20
-16.204986572266002
10
-52.40402221679701
20
-16.204986572266002
10
-52.40402221679701
20
-37.204971313477003
10
-53.996093750000007
20
-37.204971313477003
0
LWPOLYLINE
5
114
100
AcDbEntity
8
0
100
AcDbPolyline
90
4
70
1
43
0.0
10
-73.940345764160014
20
-16.204986572266002
10
-72.348274230957003
20
-16.204986572266002
10
-72.348274230957003
20
-37.204971313477003
10
-73.940345764160014
20
-37.204971313477003
0
LWPOLYLINE
5
115
100
AcDbEntity
8
0
100
AcDbPolyline
90
4
70
1
43
0.0
10
-71.448265075684006
20
-16.204986572266002
10
-69.85619354248
20
-16.204986572266002
10
-69.85619354248
20
-37.204971313477003
10
-71.448265075684006
20
-37.204971313477003
0
LWPOLYLINE
5
116
100
AcDbEntity
8
0
100
AcDbPolyline
90
4
70
1
43
0.0
10
-58.932312011719006
20
-16.204986572266002
10
-57.34024810791
20
-16.204986572266002
10
-57.34024810791
20
-37.204971313477003
10
-58.932312011719006
20
-37.204971313477003
0
LWPOLYLINE
5
117
100
AcDbEntity
8
0
100
AcDbPolyline
90
4
70
1
43
0.0
10
-46.440010070801002
20
-16.204986572266002
10
-44.895858764648004
20
-16.204986572266002
10
-44.895858764648004
20
-37.204971313477003
10
-46.440010070801002
20
-37.204971313477003
0
LWPOLYLINE
5
118
100
AcDbEntity
8
0
100
AcDbPolyline
90
4
70
1
43
0.0
10
-56.440246582031008
20
-16.204986572266002
10
-54.896095275879006
20
-16.204986572266002
10
-54.896095275879006
20
-37.204971313477003
10
-56.440246582031008
20
-37.204971313477003
0
LWPOLYLINE
5
119
100
AcDbEntity
8
0
100
AcDbPolyline
90
4
70
1
43
0.0
10
-66.46411895752
20
-16.204986572266002
10
-64.919975280762003
20
-16.204986572266002
10
-64.919975280762003
20
-37.204971313477003
10
-66.46411895752
20
-37.204971313477003
0
LWPOLYLINE
5
120
100
AcDbEntity
8
0
100
AcDbPolyline
90
11
70
1
43
0.0
10
-76.384483337402003
20
-16.21411895752
10
-76.307395935059006
20
-16.211570739746001
10
-76.14780426025402
20
-16.208267211913999
10
-75.988212585449006
20
-16.206382751465
10
-75.828605651855
20
-16.205451965331999
10
-75.668998718262003
20
-16.205078125
10
-75.509391784667997
20
-16.20499420166
10
-75.349784851074006
20
-16.204986572266002
10
-74.840339660645
20
-16.204986572266002
10
-74.840339660645
20
-37.204971313477003
10
-76.384483337402003
20
-37.204971313477003
0
LWPOLYLINE
5
121
100
AcDbEntity
8
0
100
AcDbPolyline
90
30
70
1
43
0.0
10
-78.928169250487997
20
-18.18009185791
10
-78.897605895996008
20
-18.003349304198998
10
-78.859245300292997
20
-17.828559875488001
10
-78.811820983887003
20
-17.656623840331999
10
-78.754096984862997
20
-17.488739013672003
10
-78.684898376465
20
-17.326477050781001
10
-78.603370666504006
20
-17.171676635741999
10
-78.50905609130902
20
-17.026405334473004
10
-78.402183532715
20
-16.892654418945
10
-78.283638000487997
20
-16.772087097168004
10
-78.15486907959
20
-16.665687561035
10
-78.01766204834
20
-16.573692321776999
10
-77.873832702637003
20
-16.495635986328001
10
-77.725028991699006
20
-16.430503845215
10
-77.572639465332003
20
-16.376991271973004
10
-77.417701721191008
20
-16.333717346191001
10
-77.284492492675994
20
-16.304397583008001
10
-77.284492492675994
20
-37.204971313477003
10
-79.011711120605
20
-37.204971313477003
10
-79.011711120605
20
-20.156326293945
10
-79.011619567870994
20
-19.976249694823998
10
-79.011299133300994
20
-19.796188354491999
10
-79.010475158690994
20
-19.616111755371001
10
-79.008796691895
20
-19.436058044433999
10
-79.00588226318402
20
-19.256011962891002
10
-79.001197814940994
20
-19.076019287108998
10
-78.994194030762003
20
-18.896125793456999
10
-78.984184265137003
20
-18.716407775878999
10
-78.970436096191008
20
-18.537010192871001
10
-78.952095031737997
20
-18.358131408691001
0
LWPOLYLINE
5
122
100
AcDbEntity
8
0
100
AcDbPolyline
90
30
70
1
43
0.0
10
-40.73979187011701
20
-16.772087097168004
10
-40.621246337891002
20
-16.892654418945
10
-40.51437377929701
20
-17.026405334473004
10
-40.420066833496008
20
-17.171676635741999
10
-40.338523864746001
20
-17.326477050781001
10
-40.269332885742003
20
-17.488739013672003
10
-40.211601257323998
20
-17.656623840331999
10
-40.164184570312003
20
-17.828559875488001
10
-40.125816345215
20
-18.003349304198998
10
-40.09526062011701
20
-18.18009185791
10
-40.071342468262003
20
-18.358131408691001
10
-40.05298614502
20
-18.537010192871001
10
-40.039237976073998
20
-18.716407775878999
10
-40.029235839844006
20
-18.896125793456999
10
-40.022232055664006
20
-19.076019287108998
10
-40.01754760742201
20
-19.256011962891002
10
-40.014625549316001
20
-19.436058044433999
10
-40.012954711914006
20
-19.616111755371001
10
-40.012130737305
20
-19.796188354491999
10
-40.01180267334
20
-19.976249694823998
10
-40.01171875
20
-20.156326293945
10
-40.011711120605
20
-20.336395263671999
10
-40.011711120605
20
-37.204971313477003
10
-41.503784179687997
20
-37.204971313477003
10
-41.503784179687997
20
-16.362197875976999
10
-41.450798034667997
20
-16.376991271973004
10
-41.298393249512003
20
-16.430503845215
10
-41.149597167968999
20
-16.495635986328001
10
-41.005767822266002
20
-16.573692321776999
10
-40.868553161621001
20
-16.665687561035
0
LWPOLYLINE
5
123
100
AcDbEntity
8
0
100
AcDbPolyline
90
4
70
1
43
0.0
10
-15.025650024414002
20
-75.389907836914006
10
-34.025650024413999
20
-75.389907836914006
10
-34.025650024413999
20
-72.989898681640994
10
-15.025650024414002
20
-72.989898681640994
0
LWPOLYLINE
5
124
100
AcDbEntity
8
0
100
AcDbPolyline
90
4
70
1
43
0.0
10
-15.025650024414002
20
-4.5729064941409998
10
-34.025650024413999
20
-4.5729064941409998
10
-34.025650024413999
20
-2.172912597656
10
-15.025650024414002
20
-2.172912597656
0
LWPOLYLINE
5
125
100
AcDbEntity
8
0
100
AcDbPolyline
90
4
70
1
43
0.0
10
-113.31963348388001
20
-63.339744567871001
10
-113.31963348388001
20
-54.339744567871008
10
-110.91963958740001
20
-54.339744567871008
10
-110.91963958740001
20
-63.339744567871001
0
LWPOLYLINE
5
126
100
AcDbEntity
8
0
100
AcDbPolyline
90
4
70
1
43
0.0
10
-1.360034942627
20
-64.018676757812017
10
-3.7600326538090001
20
-64.018676757812017
10
-3.7600326538090001
20
-55.018684387207003
10
-1.360034942627
20
-55.018684387207003
0
LWPOLYLINE
5
127
100
AcDbEntity
8
0
100
AcDbPolyline
90
33
70
1
43
0.0
10
-94.761543273925994
20
-53.68546295166
10
-95.366325378417997
20
-53.745025634766002
10
-95.971092224120994
20
-53.68546295166
10
-96.552635192871008
20
-53.509048461914006
10
-97.088584899902003
20
-53.222579956055007
10
-97.55835723877
20
-52.837059020996008
10
-97.94387054443402
20
-52.367294311522997
10
-98.230339050292997
20
-51.831344604492003
10
-98.406761169434006
20
-51.249809265137003
10
-98.466316223145014
20
-50.645027160645
10
-98.406761169434006
20
-50.040245056152003
10
-98.230339050292997
20
-49.458702087402003
10
-97.94387054443402
20
-48.922752380371008
10
-97.55835723877
20
-48.452995300293004
10
-97.088584899902003
20
-48.067474365234006
10
-96.552635192871008
20
-47.780998229980007
10
-95.971092224120994
20
-47.604591369628999
10
-95.366325378417997
20
-47.545021057129006
10
-94.761543273925994
20
-47.604591369628999
10
-94.180000305176009
20
-47.780998229980007
10
-93.644050598145
20
-48.067474365234006
10
-93.174278259277003
20
-48.452995300293004
10
-92.788764953613011
20
-48.922752380371008
10
-92.502296447754006
20
-49.458702087402003
10
-92.325889587402003
20
-50.040245056152003
10
-92.290931701660014
20
-50.39514160156201
10
-92.266319274902017
20
-50.645027160645
10
-92.325889587402003
20
-51.249809265137003
10
-92.502296447754006
20
-51.831344604492003
10
-92.788764953613011
20
-52.367294311522997
10
-93.174278259277003
20
-52.837059020996008
10
-93.644050598145
20
-53.222579956055007
10
-94.180000305176009
20
-53.509048461914006
0
LWPOLYLINE
5
128
100
AcDbEntity
8
0
100
AcDbPolyline
90
32
70
1
43
0.0
10
-94.761543273925994
20
-35.291297912597997
10
-94.180000305176009
20
-35.467704772948998
10
-93.644050598145
20
-35.754173278808999
10
-93.174278259277003
20
-36.139701843262003
10
-92.788764953613011
20
-36.609466552733998
10
-92.502296447754006
20
-37.145416259766002
10
-92.325889587402003
20
-37.726951599121001
10
-92.266319274902017
20
-38.331733703612997
10
-92.325889587402003
20
-38.936508178711001
10
-92.502296447754006
20
-39.518051147461001
10
-92.788764953613011
20
-40.054000854492003
10
-93.174278259277003
20
-40.52375793457
10
-93.644050598145
20
-40.909286499022997
10
-94.180000305176009
20
-41.195755004882997
10
-94.761543273925994
20
-41.372161865233998
10
-95.366325378417997
20
-41.431732177734006
10
-95.971092224120994
20
-41.372161865233998
10
-96.552635192871008
20
-41.195755004882997
10
-97.088584899902003
20
-40.909286499022997
10
-97.55835723877
20
-40.52375793457
10
-97.94387054443402
20
-40.054000854492003
10
-98.230339050292997
20
-39.518051147461001
10
-98.406761169434006
20
-38.936508178711001
10
-98.466316223145014
20
-38.331733703612997
10
-98.406761169434006
20
-37.726951599121001
10
-98.230339050292997
20
-37.145416259766002
10
-97.94387054443402
20
-36.609466552733998
10
-97.55835723877
20
-36.139701843262003
10
-97.088584899902003
20
-35.754173278808999
10
-96.552635192871008
20
-35.467704772948998
10
-95.971092224120994
20
-35.291297912597997
10
-95.366325378417997
20
-35.231735229492003
0
LWPOLYLINE
5
129
100
AcDbEntity
8
0
100
AcDbPolyline
90
33
70
1
43
0.0
10
-93.174278259277003
20
-28.487350463867003
10
-93.644050598145
20
-28.872871398926002
10
-94.180000305176009
20
-29.159339904785
10
-94.761543273925994
20
-29.335746765137003
10
-95.366325378417997
20
-29.395309448242003
10
-95.971092224120994
20
-29.335746765137003
10
-96.552635192871008
20
-29.159339904785
10
-97.088584899902003
20
-28.872871398926002
10
-97.55835723877
20
-28.487350463867003
10
-97.94387054443402
20
-28.017578125
10
-98.230339050292997
20
-27.481628417968999
10
-98.406761169434006
20
-26.900093078613004
10
-98.466316223145014
20
-26.295310974121001
10
-98.406761169434006
20
-25.690536499023004
10
-98.230339050292997
20
-25.108993530273001
10
-97.94387054443402
20
-24.573051452636999
10
-97.55835723877
20
-24.103286743163999
10
-97.088584899902003
20
-23.717758178711001
10
-96.552635192871008
20
-23.431289672851999
10
-95.971092224120994
20
-23.254875183105
10
-95.366325378417997
20
-23.195312500000004
10
-94.761543273925994
20
-23.254875183105
10
-94.180000305176009
20
-23.431289672851999
10
-93.644050598145
20
-23.717758178711001
10
-93.174278259277003
20
-24.103286743163999
10
-92.788764953613011
20
-24.573051452636999
10
-92.502296447754006
20
-25.108993530273001
10
-92.325889587402003
20
-25.690536499023004
10
-92.290931701660014
20
-26.045425415038999
10
-92.266319274902017
20
-26.295310974121001
10
-92.325889587402003
20
-26.900093078613004
10
-92.502296447754006
20
-27.481628417968999
10
-92.788764953613011
20
-28.017578125
0
LWPOLYLINE
5
130
100
AcDbEntity
8
0
100
AcDbPolyline
90
33
70
1
43
0.0
10
-5.8755722045900001
20
-71.761779785155994
10
-6.2645645141599999
20
-71.969696044922003
10
-6.6866531372070002
20
-72.097747802734006
10
-7.1256027221680007
20
-72.140975952147997
10
-7.5645599365229996
20
-72.097747802734006
10
-7.9866409301759997
20
-71.969696044922003
10
-8.3756408691409998
20
-71.761779785155994
10
-8.7165908813480009
20
-71.481964111327997
10
-8.9964141845699999
20
-71.140991210937997
10
-9.2043380737299998
20
-70.751998901367003
10
-9.3323745727540004
20
-70.329925537109006
10
-9.3756103515620008
20
-69.890975952147997
10
-9.3532867431640003
20
-69.664367675780994
10
-9.3323745727540004
20
-69.452011108398011
10
-9.2043380737299998
20
-69.029937744140994
10
-8.9964141845699999
20
-68.64094543457
10
-8.7165908813480009
20
-68.29997253418
10
-8.3756408691409998
20
-68.020156860352017
10
-7.9866409301759997
20
-67.812240600585994
10
-7.5645599365229996
20
-67.684188842772997
10
-7.1256027221680007
20
-67.640960693359006
10
-6.6866531372070002
20
-67.684188842772997
10
-6.2645645141599999
20
-67.812240600585994
10
-5.8755722045900001
20
-68.020156860352017
10
-5.5346145629879997
20
-68.29997253418
10
-5.2547912597659998
20
-68.64094543457
10
-5.0468750000000009
20
-69.029937744140994
10
-4.9188385009770013
20
-69.452011108398011
10
-4.8756027221679998
20
-69.890975952147997
10
-4.9188385009770013
20
-70.329925537109006
10
-5.0468750000000009
20
-70.751998901367003
10
-5.2547912597659998
20
-71.140991210937997
10
-5.5346145629879997
20
-71.481964111327997
0
LWPOLYLINE
5
131
100
AcDbEntity
8
0
100
AcDbPolyline
90
32
70
1
43
0.0
10
-109.86116790771
20
-69.452011108398011
10
-109.73314666748001
20
-69.029937744140994
10
-109.52521514892
20
-68.64094543457
10
-109.24539947509001
20
-68.29997253418
10
-108.90444183349001
20
-68.020156860352017
10
-108.51544952392001
20
-67.812240600585994
10
-108.09336090087001
20
-67.684188842772997
10
-107.65441131591001
20
-67.640960693359006
10
-107.21546173095
20
-67.684188842772997
10
-106.79337310791
20
-67.812240600585994
10
-106.40438079834
20
-68.020156860352017
10
-106.06342315673001
20
-68.29997253418
10
-105.78360748291001
20
-68.64094543457
10
-105.57567596435
20
-69.029937744140994
10
-105.44763946533001
20
-69.452011108398011
10
-105.40441131591001
20
-69.890975952147997
10
-105.44763946533001
20
-70.329925537109006
10
-105.57567596435
20
-70.751998901367003
10
-105.78360748291001
20
-71.140991210937997
10
-106.06342315673001
20
-71.481964111327997
10
-106.40438079834
20
-71.761779785155994
10
-106.79337310791
20
-71.969696044922003
10
-107.21546173095
20
-72.097747802734006
10
-107.65441131591001
20
-72.140975952147997
10
-108.09336090087001
20
-72.097747802734006
10
-108.51544952392001
20
-71.969696044922003
10
-108.90444183349001
20
-71.761779785155994
10
-109.24539947509001
20
-71.481964111327997
10
-109.52521514892
20
-71.140991210937997
10
-109.73314666748001
20
-70.751998901367003
10
-109.86116790771
20
-70.329925537109006
10
-109.90441131591
20
-69.890975952147997
0
LWPOLYLINE
5
132
100
AcDbEntity
8
0
100
AcDbPolyline
90
32
70
1
43
0.0
10
-5.0468750000000009
20
-7.5788269042970002
10
-4.9188385009770013
20
-8.000907897949002
10
-4.8756027221679998
20
-8.4398651123050001
10
-4.9188385009770013
20
-8.8788223266599999
10
-5.0468750000000009
20
-9.3008956909180007
10
-5.2547912597659998
20
-9.6898956298830008
10
-5.5346145629879997
20
-10.030853271484002
10
-5.8755722045900001
20
-10.310668945312001
10
-6.2645645141599999
20
-10.518585205078001
10
-6.6866531372070002
20
-10.646629333496001
10
-7.1256027221680007
20
-10.689865112305002
10
-7.5645599365229996
20
-10.646629333496001
10
-7.9866409301759997
20
-10.518585205078001
10
-8.3756408691409998
20
-10.310668945312001
10
-8.7165908813480009
20
-10.030853271484002
10
-8.9964141845699999
20
-9.6898956298830008
10
-9.2043380737299998
20
-9.3008956909180007
10
-9.3323745727540004
20
-8.8788223266599999
10
-9.3756103515620008
20
-8.4398651123050001
10
-9.3323745727540004
20
-8.000907897949002
10
-9.2043380737299998
20
-7.5788269042970002
10
-8.9964141845699999
20
-7.1898345947270004
10
-8.7165908813480009
20
-6.8488693237299998
10
-8.3756408691409998
20
-6.569053649902
10
-7.9866409301759997
20
-6.3611373901370003
10
-7.5645599365229996
20
-6.2331008911130006
10
-7.1256027221680007
20
-6.189865112305001
10
-6.6866531372070002
20
-6.2331008911130006
10
-6.2645645141599999
20
-6.3611373901370003
10
-5.8755722045900001
20
-6.569053649902
10
-5.5346145629879997
20
-6.8488693237299998
10
-5.2547912597659998
20
-7.1898345947270004
0
LWPOLYLINE
5
133
100
AcDbEntity
8
0
100
AcDbPolyline
90
33
70
1
43
0.0
10
-109.24539947509001
20
-6.8488693237299998
10
-108.90444183349001
20
-6.569053649902
10
-108.51544952392001
20
-6.3611373901370003
10
-108.09336090087001
20
-6.2331008911130006
10
-107.65441131591001
20
-6.189865112305001
10
-107.21546173095
20
-6.2331008911130006
10
-106.79337310791
20
-6.3611373901370003
10
-106.40438079834
20
-6.569053649902
10
-106.06342315673001
20
-6.8488693237299998
10
-105.78360748291001
20
-7.1898345947270004
10
-105.78244781494
20
-7.1920013427730005
10
-105.57567596435
20
-7.5788269042970002
10
-105.44763946533001
20
-8.000907897949002
10
-105.40441131591001
20
-8.4398651123050001
10
-105.44763946533001
20
-8.8788223266599999
10
-105.57567596435
20
-9.3008956909180007
10
-105.78360748291001
20
-9.6898956298830008
10
-106.06342315673001
20
-10.030853271484002
10
-106.40438079834
20
-10.310668945312001
10
-106.79337310791
20
-10.518585205078001
10
-107.21546173095
20
-10.646629333496001
10
-107.65441131591001
20
-10.689865112305002
10
-108.09336090087001
20
-10.646629333496001
10
-108.51544952392001
20
-10.518585205078001
10
-108.90444183349001
20
-10.310668945312001
10
-109.24539947509001
20
-10.030853271484002
10
-109.52521514892
20
-9.6898956298830008
10
-109.73314666748001
20
-9.3008956909180007
10
-109.86116790771
20
-8.8788223266599999
10
-109.90441131591
20
-8.4398651123050001
10
-109.86116790771
20
-8.000907897949002
10
-109.73314666748001
20
-7.5788269042970002
10
-109.52521514892
20
-7.1898345947270004
0
LWPOLYLINE
5
134
100
AcDbEntity
8
0
100
AcDbPolyline
90
33
70
1
43
0.0
10
-84.799171447754006
20
-27.128669738770004
10
-84.937782287597997
20
-26.869338989258004
10
-85.023155212402003
20
-26.587951660156005
10
-85.051963806152017
20
-26.295310974121001
10
-85.024284362793011
20
-26.014175415038999
10
-85.023155212402003
20
-26.00267791748
10
-84.937782287597997
20
-25.721290588379002
10
-84.799171447754006
20
-25.461959838867003
10
-84.612632751465
20
-25.234657287598004
10
-84.385322570800994
20
-25.04810333252
10
-84.125999450684006
20
-24.90950012207
10
-83.844612121582003
20
-24.824134826660003
10
-83.551979064940994
20
-24.795318603516002
10
-83.259330749512003
20
-24.824134826660003
10
-82.97794342041
20
-24.90950012207
10
-82.718620300292997
20
-25.04810333252
10
-82.491310119629006
20
-25.234657287598004
10
-82.304771423340014
20
-25.461959838867003
10
-82.166145324707003
20
-25.721290588379002
10
-82.080787658691008
20
-26.00267791748
10
-82.051963806152003
20
-26.295310974121001
10
-82.080787658691008
20
-26.587951660156005
10
-82.166145324707003
20
-26.869338989258004
10
-82.304771423340014
20
-27.128669738770004
10
-82.491310119629006
20
-27.355979919434002
10
-82.718620300292997
20
-27.542518615723001
10
-82.97794342041
20
-27.681137084961005
10
-83.259330749512003
20
-27.766487121582003
10
-83.551979064940994
20
-27.795318603516002
10
-83.844612121582003
20
-27.766487121582003
10
-84.125999450684006
20
-27.681137084961005
10
-84.385322570800994
20
-27.542518615723001
10
-84.612632751465
20
-27.355979919434002
0
LWPOLYLINE
5
135
100
AcDbEntity
8
0
100
AcDbPolyline
90
32
70
1
43
0.0
10
-82.718620300292997
20
-39.825408935547003
10
-82.97794342041
20
-39.964019775391002
10
-83.259330749512003
20
-40.049377441406008
10
-83.551979064940994
20
-40.078201293945
10
-83.844612121582003
20
-40.049377441406008
10
-84.125999450684006
20
-39.964019775391002
10
-84.385322570800994
20
-39.825408935547003
10
-84.612632751465
20
-39.638862609862997
10
-84.799171447754006
20
-39.411560058593999
10
-84.937782287597997
20
-39.152229309082003
10
-85.023155212402003
20
-38.870834350586001
10
-85.051963806152017
20
-38.578201293945
10
-85.023155212402003
20
-38.285568237305
10
-84.937782287597997
20
-38.004173278808999
10
-84.799171447754006
20
-37.744850158691001
10
-84.612632751465
20
-37.517539978027003
10
-84.385322570800994
20
-37.331001281737997
10
-84.125999450684006
20
-37.1923828125
10
-83.844612121582003
20
-37.10701751709
10
-83.551979064940994
20
-37.078201293945
10
-83.259330749512003
20
-37.10701751709
10
-82.97794342041
20
-37.1923828125
10
-82.718620300292997
20
-37.331001281737997
10
-82.491310119629006
20
-37.517539978027003
10
-82.304771423340014
20
-37.744850158691001
10
-82.166145324707003
20
-38.004173278808999
10
-82.080787658691008
20
-38.285568237305
10
-82.051963806152003
20
-38.578201293945
10
-82.080787658691008
20
-38.870834350586001
10
-82.166145324707003
20
-39.152229309082003
10
-82.304771423340014
20
-39.411560058593999
10
-82.491310119629006
20
-39.638862609862997
0
LWPOLYLINE
5
136
100
AcDbEntity
8
0
100
AcDbPolyline
90
33
70
1
43
0.0
10
-84.612632751465
20
-51.802497863770007
10
-84.799171447754006
20
-51.5751953125
10
-84.937782287597997
20
-51.315864562987997
10
-85.023155212402003
20
-51.03447723388701
10
-85.051963806152017
20
-50.741844177246008
10
-85.035057067871008
20
-50.57012176513701
10
-85.023155212402003
20
-50.449211120605
10
-84.937782287597997
20
-50.167823791503999
10
-84.799171447754006
20
-49.908485412598004
10
-84.612632751465
20
-49.681182861327997
10
-84.385322570800994
20
-49.494636535645
10
-84.125999450684006
20
-49.356018066406008
10
-83.844612121582003
20
-49.270668029785007
10
-83.551979064940994
20
-49.241844177246001
10
-83.259330749512003
20
-49.270668029785007
10
-82.97794342041
20
-49.356018066406008
10
-82.718620300292997
20
-49.494636535645
10
-82.491310119629006
20
-49.681182861327997
10
-82.304771423340014
20
-49.908485412598004
10
-82.166145324707003
20
-50.167823791503999
10
-82.080787658691008
20
-50.449211120605
10
-82.051963806152003
20
-50.741844177246008
10
-82.080787658691008
20
-51.03447723388701
10
-82.166145324707003
20
-51.315864562987997
10
-82.304771423340014
20
-51.5751953125
10
-82.491310119629006
20
-51.802497863770007
10
-82.718620300292997
20
-51.989051818848004
10
-82.97794342041
20
-52.127662658691001
10
-83.259330749512003
20
-52.213020324707003
10
-83.551979064940994
20
-52.241836547852003
10
-83.844612121582003
20
-52.213020324707003
10
-84.125999450684006
20
-52.127662658691001
10
-84.385322570800994
20
-51.989051818848004
0
ENDSEC
0
SECTION
2
OBJECTS
0
DICTIONARY
5
C
100
AcDbDictionary
3
ACAD_GROUP
350
D
3
ACAD_MLINESTYLE
350
17
0
DICTIONARY
5
D
100
AcDbDictionary
0
DICTIONARY
5
1A
330
C
100
AcDbDictionary
0
DICTIONARY
5
17
100
AcDbDictionary
0
ENDSEC
0
EOF
