<?xml version="1.0" standalone="no"?>
<!DOCTYPE svg PUBLIC "-//W3C//DTD SVG 1.1//EN"
  "http://www.w3.org/Graphics/SVG/1.1/DTD/svg11.dtd">
<svg width="117mm" height="78.8000030517578mm" viewBox="-58.5 -39.4000015258789 117 78.8000030517578" xmlns="http://www.w3.org/2000/svg" version="1.1">
	<title>svgOutput</title>
	<desc>made with tinkercad</desc>
<path d="M 57.5 38.4000015258789 L 32.768001556396484 38.4000015258789 L 0 38.4000015258789 L -32.768001556396484 38.4000015258789 L -57.5 38.4000015258789 L -57.5 36.22700119018554 L -57.5 32.76800155639648 L -57.5 24.57600021362304 L -57.5 19.430000305175778 L -57.5 16.38400077819824 L -57.5 10.43000030517578 L -57.5 1.1102230246251565e-16 L -57.5 -16.38400077819824 L -57.5 -24.57600021362304 L -57.5 -32.76800155639648 L -57.5 -33.043010711669915 L -57.5 -34.43899154663085 L -57.5 -35.992595672607415 L -57.5 -37.84068298339843 L -57.5 -38.4000015258789 L -55.25956344604492 -38.4000015258789 L -53.134090423583984 -38.4000015258789 L -32.768001556396484 -38.4000015258789 L 0 -38.4000015258789 L 32.768001556396484 -38.4000015258789 L 35.091094970703125 -38.4000015258789 L 41.981971740722656 -38.4000015258789 L 45.268436431884766 -38.4000015258789 L 47.37831497192383 -38.4000015258789 L 57.5 -38.4000015258789 L 57.5 -32.76800155639648 L 57.5 -24.57600021362304 L 57.5 -16.38400077819824 L 57.5 -15.939999580383297 L 57.5 1.1102230246251565e-16 L 57.5 16.38400077819824 L 57.5 19.430000305175778 L 57.5 24.57600021362304 L 57.5 32.76800155639648 L 57.5 33.82699966430663 L 57.5 36.22700119018554 L 57.5 38.4000015258789 M 48.5629997253418 -33.08200073242187 L 48.30609130859375 -32.76800155639648 L 48.284000396728516 -32.74100112915038 L 48.07600021362305 -32.35200119018554 L 47.948001861572266 -31.930000305175774 L 47.90399932861328 -31.49099922180175 L 47.948001861572266 -31.05200004577636 L 48.07600021362305 -30.629999160766594 L 48.284000396728516 -30.24099922180175 L 48.5629997253418 -29.899999618530266 L 48.90399932861328 -29.62000083923339 L 49.152000427246094 -29.487392425537102 L 49.292999267578125 -29.412000656127923 L 49.71500015258789 -29.28400039672851 L 50.15399932861328 -29.24099922180175 L 50.59299850463867 -29.28400039672851 L 51.01499938964844 -29.412000656127923 L 51.40399932861328 -29.62000083923339 L 51.744998931884766 -29.899999618530266 L 52.025001525878906 -30.24099922180175 L 52.233001708984375 -30.629999160766594 L 52.361000061035156 -31.05200004577636 L 52.40399932861328 -31.49099922180175 L 52.361000061035156 -31.930000305175774 L 52.233001708984375 -32.35200119018554 L 52.025001525878906 -32.74100112915038 L 52.002830505371094 -32.76800155639648 L 51.744998931884766 -33.08200073242187 L 51.40399932861328 -33.36199951171874 L 51.01499938964844 -33.56999969482421 L 50.59299850463867 -33.69800186157226 L 50.15399932861328 -33.74100112915038 L 49.71500015258789 -33.69800186157226 L 49.292999267578125 -33.56999969482421 L 48.90399932861328 -33.36199951171874 L 48.5629997253418 -33.08200073242187 M 39.739688873291016 -36.99000167846679 L 32.768001556396484 -36.99000167846679 L 22.472000122070312 -36.99000167846679 L 22.472000122070312 -34.59000015258788 L 32.768001556396484 -34.59000015258788 L 41.48630142211914 -34.59000015258788 L 44.47200012207031 -34.59000015258788 L 44.47200012207031 -35.554607391357415 L 44.47200012207031 -36.99000167846679 L 39.739688873291016 -36.99000167846679 M 53.41999816894531 -24.94000053405761 L 53.41999816894531 -24.57600021362304 L 53.41999816894531 -16.38400077819824 L 53.41999816894531 -15.939999580383297 L 55.81999969482422 -15.939999580383297 L 55.81999969482422 -16.38400077819824 L 55.81999969482422 -24.57600021362304 L 55.81999969482422 -24.94000053405761 L 53.41999816894531 -24.94000053405761 M 53.41999816894531 10.43000030517578 L 53.41999816894531 16.38400077819824 L 53.41999816894531 19.430000305175778 L 55.81999969482422 19.430000305175778 L 55.81999969482422 16.38400077819824 L 55.81999969482422 10.43000030517578 L 53.41999816894531 10.43000030517578 M 51.01499938964844 27.88100051879882 L 50.59299850463867 27.753000259399407 L 50.15399932861328 27.70999908447265 L 49.71500015258789 27.753000259399407 L 49.292999267578125 27.88100051879882 L 49.152000427246094 27.956394195556634 L 48.90399932861328 28.08900070190429 L 48.5629997253418 28.368999481201165 L 48.284000396728516 28.70999908447265 L 48.07600021362305 29.099000930786126 L 47.948001861572266 29.52099990844726 L 47.90399932861328 29.95999908447265 L 47.948001861572266 30.399000167846673 L 48.07600021362305 30.820999145507805 L 48.284000396728516 31.20999908447265 L 48.5629997253418 31.551000595092766 L 48.90399932861328 31.83099937438964 L 49.152000427246094 31.963605880737298 L 49.292999267578125 32.03900146484374 L 49.71500015258789 32.166999816894524 L 50.15399932861328 32.20999908447265 L 50.59299850463867 32.166999816894524 L 51.01499938964844 32.03900146484374 L 51.40399932861328 31.83099937438964 L 51.744998931884766 31.551000595092766 L 52.025001525878906 31.20999908447265 L 52.233001708984375 30.820999145507805 L 52.361000061035156 30.399000167846673 L 52.40399932861328 29.95999908447265 L 52.361000061035156 29.52099990844726 L 52.233001708984375 29.099000930786126 L 52.025001525878906 28.70999908447265 L 51.993797302246094 28.67200088500976 L 51.744998931884766 28.368999481201165 L 51.40399932861328 28.08900070190429 L 51.01499938964844 27.88100051879882 M -51.96500015258789 -33.08200073242187 L -52.22283172607422 -32.76800155639648 L -52.244998931884766 -32.74100112915038 L -52.452999114990234 -32.35200119018554 L -52.58100128173828 -31.930000305175774 L -52.624000549316406 -31.49099922180175 L -52.58100128173828 -31.05200004577636 L -52.452999114990234 -30.629999160766594 L -52.244998931884766 -30.24099922180175 L -51.96500015258789 -29.899999618530266 L -51.624000549316406 -29.62000083923339 L -51.23500061035156 -29.412000656127923 L -50.8129997253418 -29.28400039672851 L -50.374000549316406 -29.24099922180175 L -49.935001373291016 -29.28400039672851 L -49.51300048828125 -29.412000656127923 L -49.152000427246094 -29.605028152465813 L -49.124000549316406 -29.62000083923339 L -48.78300094604492 -29.899999618530266 L -48.50400161743164 -30.24099922180175 L -48.29600143432617 -30.629999160766594 L -48.167999267578125 -31.05200004577636 L -48.124000549316406 -31.49099922180175 L -48.167999267578125 -31.930000305175774 L -48.29600143432617 -32.35200119018554 L -48.50400161743164 -32.74100112915038 L -48.526092529296875 -32.76800155639648 L -48.78300094604492 -33.08200073242187 L -49.124000549316406 -33.36199951171874 L -49.51300048828125 -33.56999969482421 L -49.935001373291016 -33.69800186157226 L -50.374000549316406 -33.74100112915038 L -50.8129997253418 -33.69800186157226 L -51.23500061035156 -33.56999969482421 L -51.624000549316406 -33.36199951171874 L -51.96500015258789 -33.08200073242187 M -42.4739990234375 -34.59000015258788 L -32.768001556396484 -34.59000015258788 L -23.474000930786133 -34.59000015258788 L -23.474000930786133 -36.99000167846679 L -32.768001556396484 -36.99000167846679 L -42.4739990234375 -36.99000167846679 L -42.4739990234375 -34.59000015258788 M -53.7400016784668 -16.61899948120117 L -53.7400016784668 -24.57600021362304 L -53.7400016784668 -25.618999481201165 L -56.13999938964844 -25.618999481201165 L -56.13999938964844 -24.57600021362304 L -56.13999938964844 -16.61899948120117 L -53.7400016784668 -16.61899948120117 M -48.50400161743164 28.70999908447265 L -48.78300094604492 28.368999481201165 L -49.124000549316406 28.08900070190429 L -49.152000427246094 28.07402801513671 L -49.51300048828125 27.88100051879882 L -49.935001373291016 27.753000259399407 L -50.374000549316406 27.70999908447265 L -50.8129997253418 27.753000259399407 L -51.23500061035156 27.88100051879882 L -51.624000549316406 28.08900070190429 L -51.96500015258789 28.368999481201165 L -52.21379852294922 28.67200088500976 L -52.244998931884766 28.70999908447265 L -52.452999114990234 29.099000930786126 L -52.58100128173828 29.52099990844726 L -52.624000549316406 29.95999908447265 L -52.58100128173828 30.399000167846673 L -52.452999114990234 30.820999145507805 L -52.244998931884766 31.20999908447265 L -51.96500015258789 31.551000595092766 L -51.624000549316406 31.83099937438964 L -51.23500061035156 32.03900146484374 L -50.8129997253418 32.166999816894524 L -50.374000549316406 32.20999908447265 L -49.935001373291016 32.166999816894524 L -49.51300048828125 32.03900146484374 L -49.152000427246094 31.84597206115722 L -49.124000549316406 31.83099937438964 L -48.78300094604492 31.551000595092766 L -48.50400161743164 31.20999908447265 L -48.29600143432617 30.820999145507805 L -48.167999267578125 30.399000167846673 L -48.124000549316406 29.95999908447265 L -48.167999267578125 29.52099990844726 L -48.29600143432617 29.099000930786126 L -48.50400161743164 28.70999908447265 M 44.47200012207031 33.82699966430663 L 32.768001556396484 33.82699966430663 L 22.472000122070312 33.82699966430663 L 22.472000122070312 36.22700119018554 L 32.768001556396484 36.22700119018554 L 44.47200012207031 36.22700119018554 L 44.47200012207031 33.82699966430663 M -23.474000930786133 33.82699966430663 L -32.768001556396484 33.82699966430663 L -42.4739990234375 33.82699966430663 L -42.4739990234375 36.22700119018554 L -32.768001556396484 36.22700119018554 L -23.474000930786133 36.22700119018554 L -23.474000930786133 33.82699966430663 M -56.20899963378906 16.38400077819824 L -56.20899963378906 19.430000305175778 L -53.808998107910156 19.430000305175778 L -53.808998107910156 16.38400077819824 L -53.808998107910156 10.43000030517578 L -56.20899963378906 10.43000030517578 L -56.20899963378906 16.38400077819824 z" fill="none" stroke="rgb(255,0,0)" stroke-width="0.001mm" />
</svg>