<?xml version="1.0" standalone="no"?>
<!DOCTYPE svg PUBLIC "-//W3C//DTD SVG 1.1//EN"
  "http://www.w3.org/Graphics/SVG/1.1/DTD/svg11.dtd">
<svg width="49.582000732421875mm" height="74.49600219726561mm" viewBox="-24.791000366210938 -37.248001098632805 49.582000732421875 74.49600219726561" xmlns="http://www.w3.org/2000/svg" version="1.1">
	<title>svgOutput</title>
	<desc>made with tinkercad</desc>
<path d="M 20.663999557495117 -36.248001098632805 L 20.663999557495117 -32.76800155639648 L 20.663999557495117 -23.771999359130856 L 23.791000366210938 -23.771999359130856 L 23.791000366210938 -16.773000717163082 L 20.663999557495117 -16.773000717163082 L 20.663999557495117 -16.38400077819824 L 20.663999557495117 1.1102230246251565e-16 L 20.663999557495117 1.695000052452087 L 23.791000366210938 1.695000052452087 L 23.791000366210938 16.38400077819824 L 23.791000366210938 20.69400024414062 L 20.663999557495117 20.69400024414062 L 20.663999557495117 23.834999084472653 L 20.663999557495117 32.76800155639648 L 20.663999557495117 36.248001098632805 L 0 36.248001098632805 L -20.63599967956543 36.248001098632805 L -20.63599967956543 32.76800155639648 L -20.63599967956543 23.834999084472653 L -20.63599967956543 18.881000518798825 L -23.791000366210938 18.881000518798825 L -23.791000366210938 16.38400077819824 L -23.791000366210938 11.88199996948242 L -20.63599967956543 11.88199996948242 L -20.63599967956543 8.282999992370604 L -20.63599967956543 1.1102230246251565e-16 L -20.63599967956543 -16.38400077819824 L -20.63599967956543 -16.773000717163082 L -23.791000366210938 -16.773000717163082 L -23.791000366210938 -23.771999359130856 L -20.63599967956543 -23.771999359130856 L -20.63599967956543 -32.76800155639648 L -20.63599967956543 -36.248001098632805 L 0 -36.248001098632805 L 20.663999557495117 -36.248001098632805 M 2.687000036239624 -28.225999832153313 L 0 -28.225999832153313 L -5.61299991607666 -28.225999832153313 L -5.61299991607666 -16.38400077819824 L -5.61299991607666 -12.227000236511227 L -2.4049999713897705 -12.227000236511227 L 0 -12.227000236511227 L 2.687000036239624 -12.227000236511227 L 2.687000036239624 -16.38400077819824 L 2.687000036239624 -28.225999832153313 M -2.4049999713897705 -8.31700038909912 L -7.40500020980835 -8.31700038909912 L -7.40500020980835 1.1102230246251565e-16 L -7.40500020980835 2.6830000877380367 L -2.4049999713897705 2.6830000877380367 L -2.4049999713897705 1.1102230246251565e-16 L -2.4049999713897705 -8.31700038909912 M -16.384000778198242 -7.716000080108641 L -17.742000579833984 -7.716000080108641 L -17.742000579833984 1.1102230246251565e-16 L -17.742000579833984 8.282999992370604 L -16.384000778198242 8.282999992370604 L -9.442000389099121 8.282999992370604 L -9.442000389099121 4.835999965667724 L -9.442000389099121 1.1102230246251565e-16 L -9.442000389099121 -7.716000080108641 L -16.384000778198242 -7.716000080108641 M 8.930999755859375 4.835999965667724 L 0 4.835999965667724 L -2.4049999713897705 4.835999965667724 L -6.068999767303467 4.835999965667724 L -6.068999767303467 8.282999992370604 L -6.068999767303467 16.38400077819824 L -6.068999767303467 23.834999084472653 L 0 23.834999084472653 L 8.930999755859375 23.834999084472653 L 8.930999755859375 20.69400024414062 L 8.930999755859375 16.38400077819824 L 8.930999755859375 4.835999965667724 z" fill="none" stroke="rgb(255,0,0)" stroke-width="0.001mm" />
</svg>