<?xml version="1.0" standalone="no"?>
<!DOCTYPE svg PUBLIC "-//W3C//DTD SVG 1.1//EN"
  "http://www.w3.org/Graphics/SVG/1.1/DTD/svg11.dtd">
<svg width="108.5mm" height="49.706001281738274mm" viewBox="-54.25 -24.853000640869137 108.5 49.706001281738274" xmlns="http://www.w3.org/2000/svg" version="1.1">
	<title>svgOutput</title>
	<desc>made with tinkercad</desc>
<path d="M 43.56800079345703 -23.853000640869137 L 43.56800079345703 -20.70499992370605 L 53.25 -20.70499992370605 L 53.25 20.732000350952145 L 43.56800079345703 20.732000350952145 L 43.56800079345703 23.853000640869137 L 37.042999267578125 23.853000640869137 L 32.768001556396484 23.853000640869137 L 23.791000366210938 23.853000640869137 L 23.791000366210938 20.732000350952145 L 16.384000778198242 20.732000350952145 L 0 20.732000350952145 L -23.791000366210938 20.732000350952145 L -23.791000366210938 23.853000640869137 L -32.768001556396484 23.853000640869137 L -41.49100112915039 23.853000640869137 L -41.49100112915039 20.732000350952145 L -44.847999572753906 20.732000350952145 L -53.25 20.732000350952145 L -53.25 -20.70499992370605 L -44.847999572753906 -20.70499992370605 L -41.49100112915039 -20.70499992370605 L -41.49100112915039 -23.853000640869137 L -32.768001556396484 -23.853000640869137 L -23.791000366210938 -23.853000640869137 L -23.791000366210938 -20.70499992370605 L 0 -20.70499992370605 L 8.194000244140625 -20.70499992370605 L 21.042999267578125 -20.70499992370605 L 23.791000366210938 -20.70499992370605 L 23.791000366210938 -23.853000640869137 L 32.768001556396484 -23.853000640869137 L 37.042999267578125 -23.853000640869137 L 43.56800079345703 -23.853000640869137 M 29.003999710083008 1.6660000085830684 L 28.825000762939453 1.5490000247955318 L 28.672000885009766 1.459195613861084 L 28.641000747680664 1.440999984741211 L 28.451000213623047 1.3420000076293945 L 28.298324584960938 1.2727450132369995 L 28.256999969482422 1.253999948501587 L 28.058000564575195 1.1749999523162842 L 27.720809936523438 1.070041298866272 L 27.694602966308594 1.0608429908752441 L 27.659025192260742 1.0502562522888184 L 27.6229248046875 1.0414049625396729 L 27.28821563720703 0.9736363887786864 L 27.233545303344727 0.9639173746109008 L 27.21514892578125 0.9616611599922179 L 27.196752548217773 0.9597520828247069 L 26.85708236694336 0.922562003135681 L 26.82011604309082 0.9201322197914122 L 26.81382942199707 0.92001473903656 L 26.801546096801758 0.9197851419448851 L 26.624000549316406 0.9155578613281249 L 26.558570861816406 0.9139999747276305 L 26.540000915527344 0.9139999747276305 L 26.503032684326172 0.9153884053230285 L 26.238571166992188 0.9286115765571593 L 26.201602935791016 0.9319090843200682 L 26.026395797729492 0.9517437815666198 L 25.96912384033203 0.9607685804367064 L 25.79474449157715 0.9896942377090453 L 25.53689193725586 1.0491983890533447 L 25.485000610351562 1.0609999895095825 L 25.482688903808594 1.061706781387329 L 25.229999542236328 1.1390000581741333 L 25.02899932861328 1.2130000591278076 L 24.832000732421875 1.2970000505447388 L 24.798677444458008 1.3131405115127563 L 24.576000213623047 1.425257921218872 L 24.562314987182617 1.432148814201355 L 24.52985954284668 1.4500248432159424 L 24.229860305786133 1.6359752416610713 L 24.183000564575195 1.6660000085830684 L 24.181419372558594 1.6660000085830684 L 24.13774871826172 1.6660000085830684 L 20.843000411987305 1.6660000085830684 L 20.843000411987305 3.480754852294921 L 20.843000411987305 3.7352683544158927 L 20.843000411987305 8.19200038909912 L 20.843000411987305 8.684000015258787 L 24.183000564575195 8.684000015258787 L 24.214065551757812 8.70430564880371 L 24.437206268310547 8.846454620361326 L 24.469141006469727 8.865024566650389 L 24.50211524963379 8.88220691680908 L 24.576000213623047 8.920415878295897 L 24.815338134765625 9.044190406799315 L 24.849008560180664 9.05963611602783 L 25.011817932128906 9.129057884216307 L 25.059371948242188 9.147280693054197 L 25.225486755371094 9.208437919616697 L 25.274255752563477 9.223537445068358 L 25.485000610351562 9.288000106811522 L 25.53689193725586 9.299801826477049 L 25.79474449157715 9.3593053817749 L 25.80875587463379 9.361630439758299 L 25.96912384033203 9.388231277465819 L 26.035594940185547 9.398297309875487 L 26.21080207824707 9.418131828308104 L 26.24776840209961 9.420908927917479 L 26.42380142211914 9.43247890472412 L 26.46076774597168 9.433346748352049 L 26.624000549316406 9.434872627258299 L 26.63762855529785 9.435000419616697 L 26.674768447875977 9.434132575988768 L 26.80699920654297 9.43000030517578 L 27.020000457763672 9.413999557495115 L 27.23200035095215 9.387000083923338 L 27.441999435424805 9.350000381469725 L 27.649999618530273 9.302000045776365 L 27.856000900268555 9.243000030517576 L 28.058000564575195 9.173999786376951 L 28.256999969482422 9.0959997177124 L 28.451000213623047 9.00699996948242 L 28.569181442260742 8.946669578552244 L 28.634090423583984 8.91091728210449 L 28.672000885009766 8.889796257019041 L 28.749794006347656 8.846454620361326 L 28.97293472290039 8.70430564880371 L 29.003999710083008 8.684000015258787 L 29.00480842590332 8.684000015258787 L 29.041378021240234 8.684000015258787 L 29.046066284179688 8.684000015258787 L 32.34299850463867 8.684000015258787 L 32.34299850463867 8.19200038909912 L 32.34299850463867 4.09600019454956 L 32.34299850463867 3.848474979400634 L 32.34299850463867 3.6139130592346183 L 32.34299850463867 1.6660000085830684 L 29.024333953857422 1.6660000085830684 L 29.003999710083008 1.6660000085830684 M -20.2549991607666 -9.498999595642088 L -20.2549991607666 -17.819999694824215 L -32.768001556396484 -17.819999694824215 L -36.255001068115234 -17.819999694824215 L -36.255001068115234 -10.904000282287596 L -44.847999572753906 -10.904000282287596 L -44.847999572753906 -7.895999908447264 L -32.768001556396484 -7.895999908447264 L -28.847999572753906 -7.895999908447264 L -28.847999572753906 -9.498999595642088 L -20.2549991607666 -9.498999595642088 M 37.042999267578125 -17.819999694824215 L 32.768001556396484 -17.819999694824215 L 21.042999267578125 -17.819999694824215 L 21.042999267578125 -9.498999595642088 L 32.768001556396484 -9.498999595642088 L 37.042999267578125 -9.498999595642088 L 37.042999267578125 -17.819999694824215 M 8.194000244140625 -17.819999694824215 L 0 -17.819999694824215 L -7.806000232696533 -17.819999694824215 L -7.806000232696533 -9.498999595642088 L 0 -9.498999595642088 L 8.194000244140625 -9.498999595642088 L 8.194000244140625 -17.819999694824215 z" fill="none" stroke="rgb(255,0,0)" stroke-width="0.001mm" />
</svg>