<?xml version="1.0" standalone="no"?>
<!DOCTYPE svg PUBLIC "-//W3C//DTD SVG 1.1//EN"
  "http://www.w3.org/Graphics/SVG/1.1/DTD/svg11.dtd">
<svg width="108.5mm" height="49.70399856567382mm" viewBox="-54.25 -24.85199928283691 108.5 49.70399856567382" xmlns="http://www.w3.org/2000/svg" version="1.1">
	<title>svgOutput</title>
	<desc>made with tinkercad</desc>
<path d="M 23.791000366210938 23.85199928283691 L 23.791000366210938 20.70499992370605 L 0 20.70499992370605 L -23.791000366210938 20.70499992370605 L -23.791000366210938 23.85199928283691 L -32.768001556396484 23.85199928283691 L -41.49100112915039 23.85199928283691 L -41.49100112915039 20.70499992370605 L -53.25 20.70499992370605 L -53.25 9.498000144958494 L -53.25 -8.572999954223631 L -53.25 -20.732000350952145 L -47.986000061035156 -20.732000350952145 L -41.49100112915039 -20.732000350952145 L -41.49100112915039 -23.85199928283691 L -32.768001556396484 -23.85199928283691 L -23.791000366210938 -23.85199928283691 L -23.791000366210938 -20.732000350952145 L 0 -20.732000350952145 L 23.791000366210938 -20.732000350952145 L 23.791000366210938 -23.85199928283691 L 43.56800079345703 -23.85199928283691 L 43.56800079345703 -20.732000350952145 L 53.25 -20.732000350952145 L 53.25 9.498000144958494 L 53.25 17.819999694824215 L 53.25 20.70499992370605 L 43.56800079345703 20.70499992370605 L 43.56800079345703 23.85199928283691 L 23.791000366210938 23.85199928283691 M 21.042999267578125 9.498000144958494 L 21.042999267578125 17.819999694824215 L 37.042999267578125 17.819999694824215 L 37.042999267578125 9.498000144958494 L 21.042999267578125 9.498000144958494 M 8.194000244140625 17.819999694824215 L 8.194000244140625 9.498000144958494 L 0 9.498000144958494 L -7.806000232696533 9.498000144958494 L -7.806000232696533 17.819999694824215 L 0 17.819999694824215 L 8.194000244140625 17.819999694824215 M -20.2549991607666 9.498000144958494 L -32.768001556396484 9.498000144958494 L -36.255001068115234 9.498000144958494 L -36.255001068115234 17.819999694824215 L -32.768001556396484 17.819999694824215 L -20.2549991607666 17.819999694824215 L -20.2549991607666 9.498000144958494 M -31.986000061035156 -16.89399909973144 L -32.768001556396484 -16.89399909973144 L -47.986000061035156 -16.89399909973144 L -47.986000061035156 -8.572999954223631 L -32.768001556396484 -8.572999954223631 L -31.986000061035156 -8.572999954223631 L -31.986000061035156 -16.89399909973144 z" fill="none" stroke="rgb(255,0,0)" stroke-width="0.001mm" />
</svg>